<svg width="10" height="10" viewBox="0 0 10 10" fill="none" xmlns="http://www.w3.org/2000/svg">
<path d="M2.825 4.4625C2.96667 4.4625 3.08542 4.41458 3.18125 4.31875C3.27708 4.22292 3.325 4.10417 3.325 3.9625C3.325 3.82083 3.27708 3.70208 3.18125 3.60625C3.08542 3.51042 2.96667 3.4625 2.825 3.4625C2.68333 3.4625 2.56458 3.51042 2.46875 3.60625C2.37292 3.70208 2.325 3.82083 2.325 3.9625C2.325 4.10417 2.37292 4.22292 2.46875 4.31875C2.56458 4.41458 2.68333 4.4625 2.825 4.4625ZM5.0375 4.4625C5.17917 4.4625 5.29792 4.41458 5.39375 4.31875C5.48958 4.22292 5.5375 4.10417 5.5375 3.9625C5.5375 3.82083 5.48958 3.70208 5.39375 3.60625C5.29792 3.51042 5.17917 3.4625 5.0375 3.4625C4.89583 3.4625 4.77708 3.51042 4.68125 3.60625C4.58542 3.70208 4.5375 3.82083 4.5375 3.9625C4.5375 4.10417 4.58542 4.22292 4.68125 4.31875C4.77708 4.41458 4.89583 4.4625 5.0375 4.4625ZM7.1625 4.4625C7.30417 4.4625 7.42292 4.41458 7.51875 4.31875C7.61458 4.22292 7.6625 4.10417 7.6625 3.9625C7.6625 3.82083 7.61458 3.70208 7.51875 3.60625C7.42292 3.51042 7.30417 3.4625 7.1625 3.4625C7.02083 3.4625 6.90208 3.51042 6.80625 3.60625C6.71042 3.70208 6.6625 3.82083 6.6625 3.9625C6.6625 4.10417 6.71042 4.22292 6.80625 4.31875C6.90208 4.41458 7.02083 4.4625 7.1625 4.4625ZM0 9.1V0.75C0 0.558333 0.075 0.385417 0.225 0.23125C0.375 0.0770834 0.55 0 0.75 0H9.25C9.44167 0 9.61458 0.0770834 9.76875 0.23125C9.92292 0.385417 10 0.558333 10 0.75V7.25C10 7.44167 9.92292 7.61458 9.76875 7.76875C9.61458 7.92292 9.44167 8 9.25 8H2L0.6375 9.3625C0.520833 9.47917 0.385417 9.50625 0.23125 9.44375C0.0770834 9.38125 0 9.26667 0 9.1Z" fill="#000"/>
</svg>
