<svg width="10" height="8" viewBox="0 0 10 8" fill="none" xmlns="http://www.w3.org/2000/svg">
<path d="M0.75 8C0.55 8 0.375 7.925 0.225 7.775C0.075 7.625 0 7.45 0 7.25V0.75C0 0.55 0.075 0.375 0.225 0.225C0.375 0.0749999 0.55 0 0.75 0H9.25C9.45 0 9.625 0.0749999 9.775 0.225C9.925 0.375 10 0.55 10 0.75V7.25C10 7.45 9.925 7.625 9.775 7.775C9.625 7.925 9.45 8 9.25 8H0.75ZM5 4.15C5.04167 4.15 5.07708 4.14375 5.10625 4.13125C5.13542 4.11875 5.16667 4.10417 5.2 4.0875L9.125 1.525C9.16667 1.5 9.19792 1.46667 9.21875 1.425C9.23958 1.38333 9.25 1.3375 9.25 1.2875C9.25 1.17917 9.20208 1.09375 9.10625 1.03125C9.01042 0.96875 8.9125 0.970833 8.8125 1.0375L5 3.475L1.2 1.0375C1.1 0.970833 1 0.966667 0.9 1.025C0.8 1.08333 0.75 1.16667 0.75 1.275C0.75 1.325 0.7625 1.37292 0.7875 1.41875C0.8125 1.46458 0.841667 1.5 0.875 1.525L4.8 4.0875C4.83333 4.10417 4.86458 4.11875 4.89375 4.13125C4.92292 4.14375 4.95833 4.15 5 4.15Z" fill="#000"/>
</svg>
