<svg width="16" height="15" viewBox="0 0 16 15" fill="none" xmlns="http://www.w3.org/2000/svg">
<path d="M7.23125 14.075L6.2375 13.1563C4.6875 11.7188 3.34375 10.3469 2.20625 9.04067C1.06875 7.73442 0.5 6.3688 0.5 4.9438C0.5 3.8188 0.878125 2.87817 1.63438 2.12192C2.39062 1.36567 3.325 0.987549 4.4375 0.987549C5.075 0.987549 5.70625 1.14067 6.33125 1.44692C6.95625 1.75317 7.5125 2.2563 8 2.9563C8.55 2.2563 9.11875 1.75317 9.70625 1.44692C10.2937 1.14067 10.9125 0.987549 11.5625 0.987549C12.675 0.987549 13.6094 1.36567 14.3656 2.12192C15.1219 2.87817 15.5 3.8188 15.5 4.9438C15.5 6.3688 14.9313 7.73442 13.7938 9.04067C12.6562 10.3469 11.3125 11.7188 9.7625 13.1563L8.76875 14.075C8.55625 14.275 8.3 14.375 8 14.375C7.7 14.375 7.44375 14.275 7.23125 14.075Z" fill="black"/>
</svg>
