<svg width="30" height="30" viewBox="0 0 30 30" fill="none" xmlns="http://www.w3.org/2000/svg">
<path d="M27.1514 14.0625H20.5458C20.349 12.9118 19.8 11.8505 18.9745 11.025C18.1491 10.1995 17.0877 9.65053 15.937 9.45377V2.84814C18.8368 3.07214 21.5609 4.32558 23.6174 6.38212C25.674 8.43867 26.9274 11.1628 27.1514 14.0625V14.0625ZM27.1514 15.9375C26.9274 18.8373 25.674 21.5614 23.6174 23.6179C21.5609 25.6745 18.8368 26.9279 15.937 27.1519V20.5463C17.0877 20.3495 18.1491 19.8005 18.9745 18.975C19.8 18.1495 20.349 17.0882 20.5458 15.9375H27.1514ZM2.84953 15.9375H9.45516C9.6518 17.088 10.2005 18.1491 11.0256 18.9746C11.8508 19.8 12.9117 20.3492 14.062 20.5463V27.1519C11.1623 26.9279 8.43818 25.6745 6.38164 23.6179C4.32509 21.5614 3.07165 18.8373 2.84766 15.9375H2.84953ZM2.84953 14.0625C3.07347 11.1631 4.32664 8.4392 6.3828 6.3827C8.43896 4.3262 11.1626 3.07257 14.062 2.84814V9.45377C12.9113 9.65053 11.85 10.1995 11.0245 11.025C10.199 11.8505 9.65004 12.9118 9.45328 14.0625H2.84766H2.84953Z" fill="black"/>
</svg>
