<svg width="18" height="18" viewBox="0 0 18 18" fill="none" xmlns="http://www.w3.org/2000/svg">
<path d="M3.62533 13.6876C4.50033 13.132 5.36491 12.7119 6.21908 12.4272C7.07324 12.1424 8.00033 12.0001 9.00033 12.0001C10.0003 12.0001 10.9309 12.1424 11.792 12.4272C12.6531 12.7119 13.5212 13.132 14.3962 13.6876C15.0073 12.9376 15.4413 12.1806 15.6982 11.4167C15.9552 10.6529 16.0837 9.8473 16.0837 9.00008C16.0837 6.98619 15.4066 5.30216 14.0524 3.948C12.6982 2.59383 11.0142 1.91675 9.00033 1.91675C6.98644 1.91675 5.30241 2.59383 3.94824 3.948C2.59408 5.30216 1.91699 6.98619 1.91699 9.00008C1.91699 9.8473 2.04894 10.6529 2.31283 11.4167C2.57671 12.1806 3.01421 12.9376 3.62533 13.6876ZM9.00033 9.62508C8.19477 9.62508 7.51769 9.35078 6.96908 8.80216C6.42046 8.25355 6.14616 7.57647 6.14616 6.77091C6.14616 5.96536 6.42046 5.28828 6.96908 4.73966C7.51769 4.19105 8.19477 3.91675 9.00033 3.91675C9.80588 3.91675 10.483 4.19105 11.0316 4.73966C11.5802 5.28828 11.8545 5.96536 11.8545 6.77091C11.8545 7.57647 11.5802 8.25355 11.0316 8.80216C10.483 9.35078 9.80588 9.62508 9.00033 9.62508ZM9.00033 17.3334C7.83366 17.3334 6.74338 17.1147 5.72949 16.6772C4.7156 16.2397 3.83366 15.6424 3.08366 14.8855C2.33366 14.1286 1.74338 13.2431 1.31283 12.2292C0.88227 11.2154 0.666992 10.132 0.666992 8.97925C0.666992 7.84036 0.885742 6.76397 1.32324 5.75008C1.76074 4.73619 2.35796 3.85425 3.11491 3.10425C3.87185 2.35425 4.75727 1.7605 5.77116 1.323C6.78505 0.885498 7.86838 0.666748 9.02116 0.666748C10.16 0.666748 11.2364 0.885498 12.2503 1.323C13.2642 1.7605 14.1462 2.35425 14.8962 3.10425C15.6462 3.85425 16.2399 4.73619 16.6774 5.75008C17.1149 6.76397 17.3337 7.8473 17.3337 9.00008C17.3337 10.139 17.1149 11.2154 16.6774 12.2292C16.2399 13.2431 15.6462 14.1286 14.8962 14.8855C14.1462 15.6424 13.2642 16.2397 12.2503 16.6772C11.2364 17.1147 10.1531 17.3334 9.00033 17.3334Z" fill="black"/>
</svg>
