<svg width="84" height="84" viewBox="0 0 84 84" fill="none" xmlns="http://www.w3.org/2000/svg">
<rect opacity="0.6" width="84" height="84" rx="12" fill="url(#paint0_linear_2958_23011)"/>
<g clip-path="url(#clip0_2958_23011)">
<path d="M67.4524 14.3063H14.6855C13.7514 14.3063 12.9941 15.0635 12.9941 15.9976V23.9576C12.9941 24.8917 13.7514 25.649 14.6855 25.649H67.4524C68.3865 25.649 69.1438 24.8917 69.1438 23.9576V15.9976C69.1438 15.0635 68.3865 14.3063 67.4524 14.3063Z" fill="url(#paint1_linear_2958_23011)"/>
<path d="M16.108 72.1875C13.6649 72.1875 11.8125 70.1203 11.8125 67.382V16.9104C11.8125 14.9237 13.8528 13.125 16.108 13.125H66.5795C68.781 13.125 70.875 14.964 70.875 16.9104V50.2673C70.875 50.8176 70.4186 51.274 69.8683 51.274C69.3179 51.274 68.8615 50.8176 68.8615 50.2673V27.4477C68.8615 26.951 68.4588 26.5483 67.9621 26.5483H14.7254C14.4837 26.5483 14.2555 26.6423 14.0945 26.8168C13.92 26.9913 13.826 27.206 13.826 27.4477V67.382C13.826 69.033 14.7656 70.174 16.108 70.174H48.9548C49.5051 70.174 49.9615 70.6304 49.9615 71.1808C49.9615 71.7311 49.5051 72.1875 48.9548 72.1875H16.108ZM16.108 15.1385C14.8596 15.1385 13.9334 16.1184 13.8394 16.7896V23.6354C13.8394 24.1321 14.2287 24.5348 14.7254 24.5348H67.9756C68.4722 24.5348 68.8749 24.1321 68.8749 23.6354V16.9104C68.8749 16.9104 68.8749 16.7896 68.8749 16.7761C68.781 16.1184 67.8413 15.1519 66.6064 15.1519H16.108V15.1385Z" fill="url(#paint2_linear_2958_23011)"/>
<path d="M20.4307 21.2595C19.6521 21.2595 19.0078 20.6152 19.0078 19.8366C19.0078 19.0581 19.6387 18.4138 20.4307 18.4138C21.2227 18.4138 21.8536 19.0581 21.8536 19.8366C21.8536 20.6152 21.2227 21.2595 20.4307 21.2595Z" fill="#F8F8FF"/>
<path d="M27.1963 21.2595C26.4178 21.2595 25.7734 20.6152 25.7734 19.8366C25.7734 19.0581 26.4178 18.4138 27.1963 18.4138C27.9749 18.4138 28.6192 19.0581 28.6192 19.8366C28.6192 20.6152 27.9883 21.2595 27.1963 21.2595Z" fill="#F8F8FF"/>
<path d="M33.9737 21.2595C33.1951 21.2595 32.5508 20.6152 32.5508 19.8366C32.5508 19.0581 33.1951 18.4138 33.9737 18.4138C34.7522 18.4138 35.3965 19.0581 35.3965 19.8366C35.3965 20.6152 34.7656 21.2595 33.9737 21.2595Z" fill="#F8F8FF"/>
<rect x="12.7891" y="24.7562" width="57.0625" height="46.4313" rx="3" fill="white" stroke="url(#paint3_linear_2958_23011)" stroke-width="2"/>
<mask id="path-8-inside-1_2958_23011" fill="white">
<path d="M49 52C49 48.6426 47.7934 45.397 45.6003 42.8549C43.4072 40.3127 40.3735 38.6434 37.0523 38.1513C33.7312 37.6591 30.3438 38.3768 27.5076 40.1736C24.6715 41.9704 22.5755 44.7265 21.6017 47.9397C20.628 51.1528 20.8414 54.6088 22.203 57.6777C23.5646 60.7466 25.9837 63.224 29.0194 64.6583C32.055 66.0925 35.505 66.3881 38.7404 65.4911C41.9758 64.5941 44.781 62.5643 46.6448 59.7717L45.2941 58.8702C43.6466 61.3389 41.1667 63.1333 38.3066 63.9263C35.4464 64.7193 32.3966 64.458 29.7131 63.1901C27.0295 61.9222 24.891 59.7321 23.6873 57.0192C22.4836 54.3062 22.295 51.251 23.1558 48.4106C24.0166 45.5702 25.8694 43.1337 28.3766 41.5453C30.8838 39.9569 33.8784 39.3224 36.8143 39.7575C39.7502 40.1926 42.432 41.6683 44.3708 43.9156C46.3096 46.1628 47.3762 49.032 47.3762 52H49Z"/>
</mask>
<path d="M49 52C49 48.6426 47.7934 45.397 45.6003 42.8549C43.4072 40.3127 40.3735 38.6434 37.0523 38.1513C33.7312 37.6591 30.3438 38.3768 27.5076 40.1736C24.6715 41.9704 22.5755 44.7265 21.6017 47.9397C20.628 51.1528 20.8414 54.6088 22.203 57.6777C23.5646 60.7466 25.9837 63.224 29.0194 64.6583C32.055 66.0925 35.505 66.3881 38.7404 65.4911C41.9758 64.5941 44.781 62.5643 46.6448 59.7717L45.2941 58.8702C43.6466 61.3389 41.1667 63.1333 38.3066 63.9263C35.4464 64.7193 32.3966 64.458 29.7131 63.1901C27.0295 61.9222 24.891 59.7321 23.6873 57.0192C22.4836 54.3062 22.295 51.251 23.1558 48.4106C24.0166 45.5702 25.8694 43.1337 28.3766 41.5453C30.8838 39.9569 33.8784 39.3224 36.8143 39.7575C39.7502 40.1926 42.432 41.6683 44.3708 43.9156C46.3096 46.1628 47.3762 49.032 47.3762 52H49Z" stroke="#4254AC" stroke-width="4" mask="url(#path-8-inside-1_2958_23011)"/>
<circle cx="50" cy="49" r="8" fill="white" stroke="#B1BDF7" stroke-width="2"/>
<mask id="path-10-inside-2_2958_23011" fill="white">
<path d="M61.5117 49.325C61.5117 52.375 60.3001 55.3001 58.1434 57.4567C55.9868 59.6134 53.0617 60.825 50.0117 60.825C46.9617 60.825 44.0367 59.6134 41.88 57.4567C39.7233 55.3001 38.5117 52.375 38.5117 49.325H40.1222C40.1222 51.9479 41.1642 54.4633 43.0188 56.3179C44.8734 58.1726 47.3889 59.2145 50.0117 59.2145C52.6346 59.2145 55.15 58.1726 57.0046 56.3179C58.8593 54.4633 59.9012 51.9479 59.9012 49.325H61.5117Z"/>
</mask>
<path d="M61.5117 49.325C61.5117 52.375 60.3001 55.3001 58.1434 57.4567C55.9868 59.6134 53.0617 60.825 50.0117 60.825C46.9617 60.825 44.0367 59.6134 41.88 57.4567C39.7233 55.3001 38.5117 52.375 38.5117 49.325H40.1222C40.1222 51.9479 41.1642 54.4633 43.0188 56.3179C44.8734 58.1726 47.3889 59.2145 50.0117 59.2145C52.6346 59.2145 55.15 58.1726 57.0046 56.3179C58.8593 54.4633 59.9012 51.9479 59.9012 49.325H61.5117Z" stroke="#637CF7" stroke-width="4" mask="url(#path-10-inside-2_2958_23011)"/>
<path d="M43.8901 33.0625C43.8908 33.1772 43.856 33.2893 43.7904 33.3833C43.7248 33.4774 43.6316 33.5488 43.5238 33.5877L41.708 34.2557L41.04 36.0701C41.0004 36.1776 40.9289 36.2703 40.8349 36.3358C40.741 36.4013 40.6293 36.4365 40.5148 36.4365C40.4002 36.4365 40.2885 36.4013 40.1946 36.3358C40.1006 36.2703 40.0291 36.1776 39.9895 36.0701L39.3198 34.2578L37.505 33.5898C37.3976 33.5503 37.3048 33.4787 37.2393 33.3848C37.1738 33.2909 37.1387 33.1791 37.1387 33.0646C37.1387 32.9501 37.1738 32.8383 37.2393 32.7444C37.3048 32.6505 37.3976 32.5789 37.505 32.5394L39.3208 31.8714L39.9888 30.057C40.0284 29.9495 40.0999 29.8568 40.1939 29.7913C40.2878 29.7258 40.3995 29.6906 40.514 29.6906C40.6286 29.6906 40.7403 29.7258 40.8342 29.7913C40.9282 29.8568 40.9997 29.9495 41.0393 30.057L41.7073 31.8728L43.5217 32.5408C43.6294 32.5792 43.7225 32.6499 43.7885 32.7433C43.8544 32.8367 43.8899 32.9482 43.8901 33.0625ZM41.9214 29.6875H42.4839V30.25C42.4839 30.3246 42.5135 30.3961 42.5662 30.4489C42.619 30.5016 42.6905 30.5312 42.7651 30.5312C42.8397 30.5312 42.9112 30.5016 42.964 30.4489C43.0167 30.3961 43.0464 30.3246 43.0464 30.25V29.6875H43.6089C43.6834 29.6875 43.755 29.6579 43.8077 29.6051C43.8605 29.5524 43.8901 29.4808 43.8901 29.4062C43.8901 29.3317 43.8605 29.2601 43.8077 29.2074C43.755 29.1546 43.6834 29.125 43.6089 29.125H43.0464V28.5625C43.0464 28.4879 43.0167 28.4164 42.964 28.3636C42.9112 28.3109 42.8397 28.2812 42.7651 28.2812C42.6905 28.2812 42.619 28.3109 42.5662 28.3636C42.5135 28.4164 42.4839 28.4879 42.4839 28.5625V29.125H41.9214C41.8468 29.125 41.7752 29.1546 41.7225 29.2074C41.6697 29.2601 41.6401 29.3317 41.6401 29.4062C41.6401 29.4808 41.6697 29.5524 41.7225 29.6051C41.7752 29.6579 41.8468 29.6875 41.9214 29.6875ZM45.0151 30.8125H44.7339V30.5312C44.7339 30.4567 44.7042 30.3851 44.6515 30.3324C44.5987 30.2796 44.5272 30.25 44.4526 30.25C44.378 30.25 44.3065 30.2796 44.2537 30.3324C44.201 30.3851 44.1714 30.4567 44.1714 30.5312V30.8125H43.8901C43.8155 30.8125 43.744 30.8421 43.6912 30.8949C43.6385 30.9476 43.6089 31.0192 43.6089 31.0938C43.6089 31.1683 43.6385 31.2399 43.6912 31.2926C43.744 31.3454 43.8155 31.375 43.8901 31.375H44.1714V31.6562C44.1714 31.7308 44.201 31.8024 44.2537 31.8551C44.3065 31.9079 44.378 31.9375 44.4526 31.9375C44.5272 31.9375 44.5987 31.9079 44.6515 31.8551C44.7042 31.8024 44.7339 31.7308 44.7339 31.6562V31.375H45.0151C45.0897 31.375 45.1612 31.3454 45.214 31.2926C45.2667 31.2399 45.2964 31.1683 45.2964 31.0938C45.2964 31.0192 45.2667 30.9476 45.214 30.8949C45.1612 30.8421 45.0897 30.8125 45.0151 30.8125Z" fill="#637CF7"/>
<path d="M56.3103 35.8784L52.1216 31.6887C51.9823 31.5494 51.8169 31.4389 51.6349 31.3635C51.4529 31.2881 51.2578 31.2493 51.0608 31.2493C50.8638 31.2493 50.6687 31.2881 50.4867 31.3635C50.3047 31.4389 50.1393 31.5494 50 31.6887L38.4397 43.25C38.2998 43.3888 38.1889 43.554 38.1134 43.736C38.0379 43.918 37.9994 44.1132 38 44.3103V48.5C38 48.8978 38.158 49.2793 38.4393 49.5606C38.7207 49.8419 39.1022 50 39.5 50H43.6897C43.8868 50.0006 44.082 49.9621 44.264 49.8866C44.446 49.8111 44.6112 49.7002 44.75 49.5603L56.3103 38C56.4496 37.8607 56.5602 37.6953 56.6356 37.5133C56.711 37.3313 56.7498 37.1362 56.7498 36.9392C56.7498 36.7422 56.711 36.5471 56.6356 36.3651C56.5602 36.1831 56.4496 36.0177 56.3103 35.8784ZM53 39.1887L48.8103 35L51.0603 32.75L55.25 36.9387L53 39.1887Z" fill="#637CF7"/>
</g>
<defs>
<linearGradient id="paint0_linear_2958_23011" x1="-11.1563" y1="-12.4687" x2="98.4375" y2="103.688" gradientUnits="userSpaceOnUse">
<stop stop-color="#F8F9FF"/>
<stop offset="1" stop-color="#DBDEFE"/>
</linearGradient>
<linearGradient id="paint1_linear_2958_23011" x1="12.9941" y1="19.9776" x2="77.3852" y2="17.2888" gradientUnits="userSpaceOnUse">
<stop stop-color="#7088FF"/>
<stop offset="1" stop-color="#3A4991"/>
</linearGradient>
<linearGradient id="paint2_linear_2958_23011" x1="11.8125" y1="42.6562" x2="79.6572" y2="42.084" gradientUnits="userSpaceOnUse">
<stop stop-color="#7088FF"/>
<stop offset="1" stop-color="#3A4991"/>
</linearGradient>
<linearGradient id="paint3_linear_2958_23011" x1="11.7891" y1="47.9719" x2="79.6314" y2="47.274" gradientUnits="userSpaceOnUse">
<stop stop-color="#7088FF"/>
<stop offset="1" stop-color="#3A4991"/>
</linearGradient>
<clipPath id="clip0_2958_23011">
<rect width="59.0625" height="59.0625" fill="white" transform="translate(11.8125 13.125)"/>
</clipPath>
</defs>
</svg>
