<svg width="65" height="65" viewBox="0 0 65 65" fill="none" xmlns="http://www.w3.org/2000/svg">
<rect opacity="0.6" x="0.364258" y="0.328125" width="64" height="62.0606" rx="12" fill="url(#paint0_linear_15262_89111)"/>
<g clip-path="url(#clip0_15262_89111)">
<path d="M51.4528 10.573H11.8632C11.1624 10.573 10.5942 11.1411 10.5942 11.842V17.8141C10.5942 18.515 11.1624 19.0831 11.8632 19.0831H51.4528C52.1536 19.0831 52.7217 18.515 52.7217 17.8141V11.842C52.7217 11.1411 52.1536 10.573 51.4528 10.573Z" fill="url(#paint1_linear_15262_89111)"/>
<path d="M12.9308 53.9997C11.0978 53.9997 9.70801 52.4487 9.70801 50.3942V12.5268C9.70801 11.0363 11.2388 9.68677 12.9308 9.68677H50.7982C52.4498 9.68677 54.0209 11.0665 54.0209 12.5268V37.5536C54.0209 37.9665 53.6785 38.3089 53.2656 38.3089C52.8527 38.3089 52.5103 37.9665 52.5103 37.5536V20.4327C52.5103 20.06 52.2081 19.7579 51.8355 19.7579H11.8934C11.7122 19.7579 11.541 19.8284 11.4201 19.9593C11.2892 20.0902 11.2187 20.2514 11.2187 20.4327V50.3942C11.2187 51.633 11.9237 52.489 12.9308 52.489H37.5748C37.9877 52.489 38.3301 52.8315 38.3301 53.2444C38.3301 53.6573 37.9877 53.9997 37.5748 53.9997H12.9308ZM12.9308 11.1974C11.9942 11.1974 11.2992 11.9326 11.2287 12.4362V17.5725C11.2287 17.9451 11.5208 18.2472 11.8934 18.2472H51.8456C52.2182 18.2472 52.5203 17.9451 52.5203 17.5725V12.5268C52.5203 12.5268 52.5203 12.4362 52.5203 12.4261C52.4498 11.9326 51.7449 11.2075 50.8183 11.2075H12.9308V11.1974Z" fill="url(#paint2_linear_15262_89111)"/>
<path d="M16.1735 15.7899C15.5894 15.7899 15.106 15.3064 15.106 14.7223C15.106 14.1382 15.5793 13.6548 16.1735 13.6548C16.7677 13.6548 17.241 14.1382 17.241 14.7223C17.241 15.3064 16.7677 15.7899 16.1735 15.7899Z" fill="#F8F8FF"/>
<path d="M21.2497 15.7899C20.6655 15.7899 20.1821 15.3064 20.1821 14.7223C20.1821 14.1382 20.6655 13.6548 21.2497 13.6548C21.8338 13.6548 22.3172 14.1382 22.3172 14.7223C22.3172 15.3064 21.8439 15.7899 21.2497 15.7899Z" fill="#F8F8FF"/>
<path d="M26.3356 15.7899C25.7515 15.7899 25.2681 15.3064 25.2681 14.7223C25.2681 14.1382 25.7515 13.6548 26.3356 13.6548C26.9197 13.6548 27.4031 14.1382 27.4031 14.7223C27.4031 15.3064 26.9298 15.7899 26.3356 15.7899Z" fill="#F8F8FF"/>
<rect x="10.6909" y="18.6631" width="42.3129" height="34.3366" rx="3" fill="white" stroke="url(#paint3_linear_15262_89111)" stroke-width="2"/>
<g clip-path="url(#clip1_15262_89111)">
<path d="M29.2251 39.5114C29.2251 40.005 29.6295 40.4094 30.1231 40.4094H35.6259C35.6349 40.3193 35.6529 40.2302 35.6709 40.1311L36.0383 38.6145H30.1221C29.6285 38.6145 29.2241 39.0189 29.2241 39.5125L29.2251 39.5114Z" fill="#4254AC"/>
<path d="M41.0947 40.8489C41.0941 40.8496 41.0937 40.8505 41.0937 40.8514V42.5403C41.0937 42.8164 40.8699 43.0403 40.5937 43.0403H27.0944C26.8183 43.0403 26.5944 42.8164 26.5944 42.5403V24.9827C26.5944 24.7065 26.8183 24.4827 27.0944 24.4827H40.5937C40.8699 24.4827 41.0937 24.7065 41.0937 24.9827V30.3186C41.0937 30.7843 41.6745 30.9971 41.9754 30.6416L42.4231 30.1126C42.5011 30.0184 42.5885 29.9305 42.6815 29.8505C42.8062 29.7431 42.8896 29.5919 42.8896 29.4273V23.3875C42.8896 23.0011 42.5763 22.6868 42.1889 22.6868H25.5003C25.1129 22.6868 24.7995 23.0011 24.7995 23.3875V26.4463C24.7995 26.7224 24.5757 26.9463 24.2995 26.9463H21.2408C20.8534 26.9463 20.54 27.2596 20.54 27.647V48.3939C20.54 48.7813 20.8534 49.0946 21.2408 49.0946H37.9294C38.3168 49.0946 38.6301 48.7813 38.6301 48.3939V45.3352C38.6301 45.059 38.854 44.8352 39.1301 44.8352H42.1889C42.5763 44.8352 42.8896 44.5218 42.8896 44.1344V40.2107C42.8896 39.7451 42.3091 39.5322 42.0081 39.8875L41.6423 40.3194C41.4721 40.5166 41.2919 40.6968 41.0947 40.8489ZM25.5003 44.8362L24.7995 44.1354C24.7995 44.5228 25.1129 44.8362 25.5003 44.8362Z" fill="#637CF7"/>
<path d="M37.0683 40.4736C36.9822 40.825 37.3356 41.1233 37.6679 40.9811L39.4148 40.2303C39.7521 40.0852 40.0464 39.866 40.3097 39.6137L37.9783 37.6416C37.773 37.9439 37.6049 38.2703 37.5188 38.6266L37.0683 40.4736Z" fill="#4254AC"/>
<path d="M45.7917 31.6663L44.9168 30.9266C44.4994 30.5732 43.8737 30.6252 43.5203 31.0427L38.8784 36.5215L41.2659 38.5406L45.9078 33.0628C46.2612 32.6454 46.2092 32.0197 45.7907 31.6663H45.7917Z" fill="#4254AC"/>
<path d="M33.8443 26.8933C31.2786 26.8933 29.1914 28.9805 29.1914 31.5462C29.1914 34.1119 31.2786 36.2001 33.8443 36.2001C36.41 36.2001 38.4982 34.1119 38.4982 31.5462C38.4982 28.9805 36.41 26.8933 33.8443 26.8933ZM36.0246 31.0237L33.7252 33.3231C33.587 33.4602 33.4049 33.5363 33.2096 33.5363C33.0144 33.5363 32.8312 33.4602 32.6941 33.3231L31.5519 32.1809C31.4148 32.0427 31.3387 31.8596 31.3387 31.6653C31.3387 31.4711 31.4148 31.2869 31.5519 31.1498C31.69 31.0127 31.8732 30.9366 32.0674 30.9366C32.2616 30.9366 32.4458 31.0127 32.583 31.1498L33.2096 31.7775L34.9935 29.9936C35.1317 29.8554 35.3139 29.7804 35.5091 29.7804C35.7043 29.7804 35.8865 29.8564 36.0246 29.9936C36.1618 30.1317 36.2378 30.3149 36.2378 30.5091C36.2378 30.7033 36.1618 30.8875 36.0246 31.0247V31.0237Z" fill="#B1BDF7"/>
</g>
</g>
<defs>
<linearGradient id="paint0_linear_15262_89111" x1="-8.13574" y1="-8.884" x2="72.6513" y2="79.4163" gradientUnits="userSpaceOnUse">
<stop stop-color="#F8F9FF"/>
<stop offset="1" stop-color="#DBDEFE"/>
</linearGradient>
<linearGradient id="paint1_linear_15262_89111" x1="10.5942" y1="14.828" x2="58.905" y2="12.8107" gradientUnits="userSpaceOnUse">
<stop stop-color="#7088FF"/>
<stop offset="1" stop-color="#3A4991"/>
</linearGradient>
<linearGradient id="paint2_linear_15262_89111" x1="9.70801" y1="31.8432" x2="60.61" y2="31.4139" gradientUnits="userSpaceOnUse">
<stop stop-color="#7088FF"/>
<stop offset="1" stop-color="#3A4991"/>
</linearGradient>
<linearGradient id="paint3_linear_15262_89111" x1="9.69092" y1="35.8314" x2="60.5911" y2="35.3078" gradientUnits="userSpaceOnUse">
<stop stop-color="#7088FF"/>
<stop offset="1" stop-color="#3A4991"/>
</linearGradient>
<clipPath id="clip0_15262_89111">
<rect width="44.3129" height="44.3129" fill="white" transform="translate(9.70801 9.68677)"/>
</clipPath>
<clipPath id="clip1_15262_89111">
<rect width="25.603" height="26.4079" fill="white" transform="translate(20.54 22.6868)"/>
</clipPath>
</defs>
</svg>
