<svg width="65" height="65" viewBox="0 0 65 65" fill="none" xmlns="http://www.w3.org/2000/svg">
<rect opacity="0.6" x="0.364258" y="0.328125" width="64" height="62.0606" rx="12" fill="url(#paint0_linear_15262_89139)"/>
<g clip-path="url(#clip0_15262_89139)">
<path d="M51.4528 10.573H11.8632C11.1624 10.573 10.5942 11.1411 10.5942 11.842V17.8141C10.5942 18.515 11.1624 19.0831 11.8632 19.0831H51.4528C52.1536 19.0831 52.7217 18.515 52.7217 17.8141V11.842C52.7217 11.1411 52.1536 10.573 51.4528 10.573Z" fill="url(#paint1_linear_15262_89139)"/>
<path d="M12.9308 53.9997C11.0978 53.9997 9.70801 52.4487 9.70801 50.3942V12.5268C9.70801 11.0363 11.2388 9.68677 12.9308 9.68677H50.7982C52.4498 9.68677 54.0209 11.0665 54.0209 12.5268V37.5536C54.0209 37.9665 53.6785 38.3089 53.2656 38.3089C52.8527 38.3089 52.5103 37.9665 52.5103 37.5536V20.4327C52.5103 20.06 52.2081 19.7579 51.8355 19.7579H11.8934C11.7122 19.7579 11.541 19.8284 11.4201 19.9593C11.2892 20.0902 11.2187 20.2514 11.2187 20.4327V50.3942C11.2187 51.633 11.9237 52.489 12.9308 52.489H37.5748C37.9877 52.489 38.3301 52.8315 38.3301 53.2444C38.3301 53.6573 37.9877 53.9997 37.5748 53.9997H12.9308ZM12.9308 11.1974C11.9942 11.1974 11.2992 11.9326 11.2287 12.4362V17.5725C11.2287 17.9451 11.5208 18.2472 11.8934 18.2472H51.8456C52.2182 18.2472 52.5203 17.9451 52.5203 17.5725V12.5268C52.5203 12.5268 52.5203 12.4362 52.5203 12.4261C52.4498 11.9326 51.7449 11.2075 50.8183 11.2075H12.9308V11.1974Z" fill="url(#paint2_linear_15262_89139)"/>
<path d="M16.1735 15.7899C15.5894 15.7899 15.106 15.3064 15.106 14.7223C15.106 14.1382 15.5793 13.6548 16.1735 13.6548C16.7677 13.6548 17.241 14.1382 17.241 14.7223C17.241 15.3064 16.7677 15.7899 16.1735 15.7899Z" fill="#F8F8FF"/>
<path d="M21.2497 15.7899C20.6655 15.7899 20.1821 15.3064 20.1821 14.7223C20.1821 14.1382 20.6655 13.6548 21.2497 13.6548C21.8338 13.6548 22.3172 14.1382 22.3172 14.7223C22.3172 15.3064 21.8439 15.7899 21.2497 15.7899Z" fill="#F8F8FF"/>
<path d="M26.3356 15.7899C25.7515 15.7899 25.2681 15.3064 25.2681 14.7223C25.2681 14.1382 25.7515 13.6548 26.3356 13.6548C26.9197 13.6548 27.4031 14.1382 27.4031 14.7223C27.4031 15.3064 26.9298 15.7899 26.3356 15.7899Z" fill="#F8F8FF"/>
<rect x="10.6909" y="18.6631" width="42.3129" height="34.3366" rx="3" fill="white" stroke="url(#paint3_linear_15262_89139)" stroke-width="2"/>
</g>
<g clip-path="url(#clip1_15262_89139)">
<path d="M24.6258 31.1035C22.0475 34.8127 22.9675 39.9282 26.6765 42.5068C30.386 45.0854 35.5016 44.1654 38.0802 40.4564C39.7374 38.0723 39.9497 35.1079 38.905 32.609C38.7842 32.32 38.4224 32.2383 38.1742 32.4294L37.8726 32.6616C37.6876 32.804 37.6276 33.0548 37.7129 33.2721C38.5204 35.3279 38.3214 37.7375 36.9683 39.6836C34.8162 42.7794 30.5462 43.5472 27.45 41.3949C24.3538 39.2425 23.5863 34.9727 25.7384 31.8769C27.1663 29.8225 29.5269 28.793 31.8583 28.962C32.0892 28.9788 32.3094 28.8492 32.3918 28.6329L32.5277 28.2759C32.6397 27.9816 32.4548 27.6574 32.1413 27.6276C29.2898 27.3564 26.3749 28.589 24.6263 31.1044L24.6258 31.1035Z" fill="#637CF7"/>
<path d="M40.9703 42.4658C42.7561 39.8965 43.4351 36.7858 42.8811 33.7063C42.6699 32.5312 42.2886 31.4136 41.7545 30.3823C41.6159 30.1146 41.2692 30.0468 41.0301 30.2304L40.4654 30.6641C40.4234 30.6996 40.4125 30.7599 40.439 30.8082C40.4479 30.8246 40.4568 30.841 40.4654 30.8574C40.4706 30.8672 40.476 30.8767 40.4812 30.8872C40.5075 30.9363 40.5331 30.9856 40.5588 31.0349L40.5609 31.0392C40.5883 31.0925 40.6153 31.1456 40.6411 31.1996C40.6629 31.2428 40.6835 31.2862 40.7042 31.3303C40.7143 31.3511 40.7244 31.3718 40.7335 31.393L40.7345 31.3949C40.7546 31.4374 40.7744 31.4803 40.7933 31.5237C40.8178 31.5779 40.8417 31.6329 40.8653 31.6875C40.882 31.7266 40.8984 31.7654 40.9145 31.8046C40.9285 31.8378 40.9419 31.8711 40.9552 31.9044C41.0161 32.0547 41.073 32.2074 41.1264 32.3611C41.1435 32.4095 41.1599 32.4581 41.1761 32.507C41.1807 32.52 41.1845 32.5335 41.1889 32.5468C41.2022 32.5875 41.2157 32.6289 41.2286 32.6693C41.2322 32.6798 41.2356 32.6913 41.2393 32.7024C41.2551 32.7534 41.2703 32.8045 41.2852 32.8561C41.3218 32.9798 41.3556 33.1043 41.387 33.2296C41.3992 33.2752 41.4102 33.3217 41.4215 33.3678C41.4221 33.3711 41.4231 33.3746 41.4235 33.3772C41.4366 33.4315 41.4486 33.4855 41.4608 33.5402C41.4629 33.5486 41.4647 33.5567 41.4665 33.5665C41.4773 33.6157 41.4878 33.6653 41.4981 33.7153C41.5292 33.8683 41.5567 34.0222 41.5812 34.1763C41.5895 34.2284 41.5969 34.2809 41.6045 34.333C41.6268 34.4896 41.6453 34.6475 41.6604 34.8054C41.6645 34.8494 41.669 34.893 41.6718 34.9373C41.6726 34.9492 41.6742 34.9617 41.6748 34.9748C41.6787 35.0283 41.6828 35.0814 41.6857 35.1354C41.6888 35.1883 41.6919 35.2413 41.694 35.2948C41.6947 35.3078 41.6957 35.3211 41.6961 35.3344C41.6983 35.3828 41.6995 35.4311 41.7014 35.4792C41.7017 35.4862 41.7018 35.4926 41.702 35.4996C41.7036 35.5556 41.7048 35.6129 41.7051 35.6691C41.706 35.7234 41.7061 35.7783 41.706 35.8325C41.7059 35.8375 41.7065 35.8425 41.7057 35.8477C41.7059 35.9032 41.7049 35.9579 41.7037 36.0136C41.7037 36.0227 41.7034 36.0322 41.703 36.0417C41.7023 36.096 41.6999 36.1503 41.6979 36.2048C41.6978 36.2139 41.697 36.2225 41.6969 36.2316C41.6946 36.2825 41.6925 36.333 41.6894 36.3834C41.6868 36.433 41.6838 36.4816 41.6802 36.5311C41.6665 36.722 41.6476 36.9139 41.6229 37.1051C41.6178 37.146 41.612 37.1871 41.6066 37.2285C41.6018 37.2617 41.5976 37.2947 41.5924 37.3276C41.586 37.3695 41.5795 37.4117 41.5728 37.4533C41.5633 37.5112 41.5539 37.5681 41.5434 37.6258L41.5422 37.6307C41.5319 37.6898 41.5206 37.7487 41.5086 37.8077C41.4972 37.8666 41.4846 37.9258 41.4722 37.9845C41.4631 38.0296 41.4523 38.0746 41.4421 38.1195C41.441 38.1244 41.4402 38.1296 41.4388 38.1349C41.434 38.1549 41.4294 38.1763 41.4239 38.1965C41.4229 38.2037 41.4208 38.2108 41.4189 38.2175C41.4096 38.2572 41.3998 38.2967 41.3897 38.3365C41.3749 38.3947 41.3595 38.4537 41.3436 38.5117C41.3257 38.5768 41.3074 38.6424 41.288 38.7071C41.2733 38.7585 41.258 38.8101 41.2415 38.8608C41.2239 38.9188 41.2047 38.9768 41.1857 39.0344C41.1671 39.0922 41.1471 39.1496 41.1268 39.2075C41.1061 39.2667 41.085 39.3257 41.0628 39.3845C41.0425 39.4399 41.0212 39.4959 40.9994 39.551C40.9773 39.6081 40.9544 39.6647 40.9309 39.7214C40.9087 39.7762 40.8858 39.8304 40.8622 39.8848C40.8212 39.9796 40.7785 40.0738 40.7342 40.1685C40.7113 40.2177 40.6881 40.2666 40.6639 40.3154C40.6598 40.3245 40.6556 40.333 40.6508 40.3423C40.6383 40.3684 40.6251 40.394 40.6122 40.4199L40.6097 40.425C40.5893 40.4667 40.5678 40.5083 40.5465 40.5494C40.5419 40.5576 40.5377 40.5661 40.533 40.5754C40.507 40.6258 40.4797 40.6765 40.452 40.7269C40.4235 40.7801 40.3939 40.8332 40.3637 40.8864L40.3609 40.8912C40.3299 40.9456 40.2982 41 40.2662 41.0542C40.2459 41.0892 40.2249 41.1242 40.2035 41.159C40.1989 41.1656 40.1946 41.1734 40.1902 41.1806C40.177 41.2028 40.1634 41.2247 40.1496 41.2471C40.1271 41.2834 40.1045 41.3191 40.0811 41.3552C40.0703 41.3723 40.0593 41.3898 40.0482 41.4066C40.0184 41.4526 39.9885 41.498 39.9579 41.5435C39.9245 41.5939 39.8903 41.6438 39.8555 41.6938C36.5951 46.3838 30.1269 47.5471 25.4362 44.2867C20.7461 41.0263 19.5829 34.5581 22.8436 29.8677C22.9293 29.7447 23.0168 29.624 23.1067 29.5056C23.1289 29.4771 23.1507 29.4483 23.1731 29.4194C23.1903 29.3971 23.2079 29.3751 23.2251 29.3528C23.2532 29.3175 23.2813 29.2812 23.3101 29.2464C23.3325 29.2192 23.3548 29.1913 23.3774 29.1637C23.4226 29.1095 23.4686 29.0559 23.5142 29.0026C23.536 28.9779 23.5575 28.9528 23.579 28.9284C23.6006 28.904 23.6224 28.8793 23.6444 28.8552C23.7028 28.7902 23.7614 28.7265 23.8208 28.6634C23.8435 28.6398 23.8661 28.6156 23.8892 28.5923C23.9131 28.5678 23.9366 28.5431 23.9605 28.5186C24.0806 28.3962 24.2037 28.2769 24.3288 28.162C24.3473 28.1445 24.3658 28.1278 24.3846 28.1106C24.4003 28.0964 24.4161 28.0817 24.4322 28.0678C24.4565 28.0459 24.4818 28.0235 24.5068 28.0016C24.5719 27.9442 24.6382 27.8875 24.705 27.8319C24.7246 27.8152 24.7448 27.7985 24.7648 27.7821C24.7742 27.7744 24.7829 27.7668 24.7927 27.7593C24.8329 27.7262 24.8732 27.6937 24.9139 27.6616C24.9177 27.6585 24.9213 27.6559 24.9248 27.6532C24.9519 27.6315 24.9794 27.6101 25.0066 27.5891C25.0875 27.5262 25.1698 27.4647 25.2536 27.4043C25.2848 27.3815 25.3165 27.359 25.3481 27.3365C25.3765 27.3163 25.4058 27.2956 25.4349 27.2759C25.4427 27.2705 25.4503 27.2644 25.4582 27.2596C25.4933 27.2355 25.528 27.2112 25.5633 27.1884C25.6047 27.1601 25.6466 27.1327 25.6887 27.105C25.7509 27.0649 25.8131 27.0249 25.8761 26.986C25.9061 26.9675 25.9362 26.949 25.9659 26.9309C25.9816 26.9207 25.9975 26.9118 26.0133 26.9023C26.0397 26.8864 26.0659 26.871 26.0918 26.8559C26.1192 26.8396 26.1464 26.8243 26.1739 26.8086C26.2865 26.7437 26.3996 26.6814 26.5146 26.6211C26.5454 26.6048 26.5761 26.5886 26.6077 26.5728C26.7794 26.4846 26.9533 26.4013 27.1292 26.3234C27.1763 26.3026 27.2228 26.2825 27.2696 26.262C27.3979 26.2074 27.5272 26.1553 27.6577 26.1057C27.6971 26.091 27.7366 26.0762 27.7766 26.0613C27.9412 26.0012 28.1073 25.9456 28.2748 25.8938C28.299 25.8861 28.3232 25.8784 28.3475 25.8713C28.4044 25.8544 28.4619 25.8374 28.5189 25.8212C28.5619 25.8094 28.6048 25.7971 28.6479 25.786C28.6658 25.7808 28.6835 25.7759 28.7019 25.7716C28.7507 25.7582 28.7999 25.7457 28.8496 25.7334C28.8627 25.7301 28.8763 25.727 28.8899 25.7239C28.9435 25.7109 28.997 25.698 29.0508 25.6864C29.1101 25.6734 29.1702 25.6593 29.2296 25.647C29.2782 25.6369 29.3267 25.6273 29.3759 25.6181C29.4027 25.6123 29.4308 25.6073 29.4582 25.6024C29.4943 25.5956 29.5305 25.5888 29.5667 25.5827C29.5913 25.5786 29.6147 25.5744 29.6393 25.5704C29.699 25.56 29.759 25.551 29.819 25.5419C29.8534 25.5368 29.8882 25.5319 29.923 25.527C30.1298 25.4981 30.3381 25.4754 30.5476 25.4591C30.5971 25.4553 30.6463 25.4519 30.6958 25.4481C30.8069 25.441 30.9174 25.4358 31.0282 25.4324C31.0563 25.4314 31.0837 25.4306 31.1115 25.43C31.15 25.4288 31.1893 25.4282 31.2286 25.4276C31.2591 25.4272 31.2894 25.4271 31.32 25.4267C31.4043 25.4261 31.4887 25.4272 31.5731 25.4289C31.6281 25.4295 31.6826 25.4315 31.7372 25.4336C31.7724 25.4347 31.8069 25.4359 31.8419 25.4374C31.8965 25.4401 31.9512 25.4427 32.0057 25.4465C32.1285 25.4538 32.2515 25.4641 32.3741 25.4758C32.4053 25.4787 32.4361 25.4819 32.467 25.4852C32.5023 25.4886 32.5364 25.4929 32.571 25.4965C32.6026 25.5003 32.6339 25.5038 32.6653 25.5079C32.7397 25.5175 32.8134 25.5272 32.8878 25.5385C32.9207 25.5437 32.9539 25.5485 32.9868 25.5538C33.0287 25.5601 33.0696 25.5669 33.1106 25.5744C33.1363 25.5785 33.1623 25.583 33.1884 25.5874C33.2266 25.594 33.2645 25.601 33.3026 25.6087C33.3318 25.6142 33.3604 25.6199 33.389 25.6256C33.4666 25.6405 33.5442 25.5986 33.5723 25.5247L33.8088 24.9033C33.9164 24.6204 33.7501 24.3067 33.4523 24.2525C32.0902 24.0043 30.6804 24.0004 29.2771 24.2525C26.2 24.8047 23.5205 26.5247 21.7346 29.094C19.9488 31.6632 19.2701 34.7736 19.824 37.8531C20.3773 40.9327 22.0973 43.6122 24.6662 45.3977C27.2355 47.1836 30.3462 47.8626 33.426 47.3082C36.5052 46.7547 39.1843 45.0344 40.9703 42.4658Z" fill="#B1BDF7"/>
<path d="M32.1323 33.1161L31.4508 34.905C31.1404 34.8703 30.8208 35.0028 30.6299 35.2776C30.3523 35.6769 30.451 36.2254 30.85 36.5027C31.2489 36.7801 31.7978 36.6816 32.0751 36.2827C32.2696 36.0036 32.2787 35.6519 32.1307 35.3701L33.6399 34.2087C34.2733 35.133 34.3079 36.3917 33.6313 37.3645C32.7575 38.6213 31.0243 38.9329 29.7672 38.0594C28.5104 37.1856 28.1989 35.4524 29.0723 34.1954C29.7702 33.1911 31.0173 32.7911 32.1312 33.116L32.1323 33.1161ZM27.9611 33.4224C26.6611 35.2925 27.1249 37.8712 28.995 39.1712C30.8652 40.4711 33.4438 40.0074 34.7438 38.1372C35.7651 36.6679 35.6976 34.7616 34.7151 33.3817L36.8628 31.7292L37.9361 30.9031L39.6533 29.5817L40.4962 28.9333C40.6264 28.8331 40.6522 28.6466 40.5502 28.5178C39.8435 27.6244 39.0008 26.8306 38.0385 26.1618C37.2673 25.6256 36.4467 25.1895 35.5932 24.8567C35.4407 24.7973 35.2706 24.8757 35.2123 25.0285L34.8334 26.0224L34.0622 28.0474L33.5798 29.3136L32.6151 31.8468C30.9318 31.3074 29.0216 31.8976 27.9611 33.4224Z" fill="#4254AC"/>
</g>
<defs>
<linearGradient id="paint0_linear_15262_89139" x1="-8.13574" y1="-8.884" x2="72.6513" y2="79.4163" gradientUnits="userSpaceOnUse">
<stop stop-color="#F8F9FF"/>
<stop offset="1" stop-color="#DBDEFE"/>
</linearGradient>
<linearGradient id="paint1_linear_15262_89139" x1="10.5942" y1="14.828" x2="58.905" y2="12.8107" gradientUnits="userSpaceOnUse">
<stop stop-color="#7088FF"/>
<stop offset="1" stop-color="#3A4991"/>
</linearGradient>
<linearGradient id="paint2_linear_15262_89139" x1="9.70801" y1="31.8432" x2="60.61" y2="31.4139" gradientUnits="userSpaceOnUse">
<stop stop-color="#7088FF"/>
<stop offset="1" stop-color="#3A4991"/>
</linearGradient>
<linearGradient id="paint3_linear_15262_89139" x1="9.69092" y1="35.8314" x2="60.5911" y2="35.3078" gradientUnits="userSpaceOnUse">
<stop stop-color="#7088FF"/>
<stop offset="1" stop-color="#3A4991"/>
</linearGradient>
<clipPath id="clip0_15262_89139">
<rect width="44.3129" height="44.3129" fill="white" transform="translate(9.70801 9.68677)"/>
</clipPath>
<clipPath id="clip1_15262_89139">
<rect width="23.4268" height="23.4272" fill="white" transform="translate(28.437 19.4731) rotate(34.8628)"/>
</clipPath>
</defs>
</svg>
