<svg width="84" height="84" viewBox="0 0 84 84" fill="none" xmlns="http://www.w3.org/2000/svg">
<rect opacity="0.6" width="84" height="84" rx="12" fill="url(#paint0_linear_15262_87695)"/>
<g clip-path="url(#clip0_15262_87695)">
<path d="M67.452 14.3062H14.685C13.7509 14.3062 12.9937 15.0634 12.9937 15.9975V23.9575C12.9937 24.8916 13.7509 25.6488 14.685 25.6488H67.452C68.3861 25.6488 69.1433 24.8916 69.1433 23.9575V15.9975C69.1433 15.0634 68.3861 14.3062 67.452 14.3062Z" fill="url(#paint1_linear_15262_87695)"/>
<path d="M16.108 72.1875C13.6649 72.1875 11.8125 70.1203 11.8125 67.382V16.9104C11.8125 14.9237 13.8528 13.125 16.108 13.125H66.5795C68.781 13.125 70.875 14.964 70.875 16.9104V50.2673C70.875 50.8176 70.4186 51.274 69.8683 51.274C69.3179 51.274 68.8615 50.8176 68.8615 50.2673V27.4477C68.8615 26.951 68.4588 26.5483 67.9621 26.5483H14.7254C14.4837 26.5483 14.2555 26.6423 14.0945 26.8168C13.92 26.9913 13.826 27.206 13.826 27.4477V67.382C13.826 69.033 14.7656 70.174 16.108 70.174H48.9548C49.5051 70.174 49.9615 70.6304 49.9615 71.1808C49.9615 71.7311 49.5051 72.1875 48.9548 72.1875H16.108ZM16.108 15.1385C14.8596 15.1385 13.9334 16.1184 13.8394 16.7896V23.6354C13.8394 24.1321 14.2287 24.5348 14.7254 24.5348H67.9756C68.4722 24.5348 68.8749 24.1321 68.8749 23.6354V16.9104C68.8749 16.9104 68.8749 16.7896 68.8749 16.7761C68.781 16.1184 67.8413 15.1519 66.6064 15.1519H16.108V15.1385Z" fill="url(#paint2_linear_15262_87695)"/>
<path d="M20.4302 21.2596C19.6516 21.2596 19.0073 20.6152 19.0073 19.8367C19.0073 19.0581 19.6382 18.4138 20.4302 18.4138C21.2222 18.4138 21.8531 19.0581 21.8531 19.8367C21.8531 20.6152 21.2222 21.2596 20.4302 21.2596Z" fill="#F8F8FF"/>
<path d="M27.1958 21.2596C26.4173 21.2596 25.7729 20.6152 25.7729 19.8367C25.7729 19.0581 26.4173 18.4138 27.1958 18.4138C27.9744 18.4138 28.6187 19.0581 28.6187 19.8367C28.6187 20.6152 27.9878 21.2596 27.1958 21.2596Z" fill="#F8F8FF"/>
<path d="M33.9741 21.2596C33.1956 21.2596 32.5513 20.6152 32.5513 19.8367C32.5513 19.0581 33.1956 18.4138 33.9741 18.4138C34.7527 18.4138 35.397 19.0581 35.397 19.8367C35.397 20.6152 34.7661 21.2596 33.9741 21.2596Z" fill="#F8F8FF"/>
<rect x="12.7896" y="24.7563" width="57.0625" height="46.4313" rx="3" fill="white" stroke="url(#paint3_linear_15262_87695)" stroke-width="2"/>
</g>
<g clip-path="url(#clip1_15262_87695)">
<path d="M29.2239 52.8743H22.5781V63.0616H29.2239V52.8743Z" fill="#637CF7"/>
<path d="M22.5777 52.1885H29.2234C29.6028 52.1885 29.9047 52.4975 29.9047 52.8743V63.0616C29.9047 63.4385 29.6028 63.7474 29.2234 63.7474H22.5777C22.1983 63.7474 21.8872 63.4385 21.8872 63.0616V52.8743C21.8872 52.4975 22.1983 52.1885 22.5777 52.1885ZM28.5329 53.551H23.259V62.3849H28.5329V53.551Z" fill="#637CF7"/>
<path d="M27.5989 45.9926C27.3072 46.2337 26.8788 46.1861 26.6351 45.8954C26.4015 45.5955 26.4505 45.17 26.7421 44.938L34.4975 38.7331C34.7892 38.5011 35.2176 38.5497 35.4614 38.8395C35.6949 39.1292 35.646 39.5648 35.3543 39.7968L27.5989 45.9926ZM37.5053 39.4392C37.1544 39.3136 36.9698 38.9175 37.0871 38.569C37.2136 38.2114 37.6123 38.028 37.9632 38.1536L45.1831 40.7055C45.5432 40.8311 45.7278 41.2181 45.6023 41.5757C45.4758 41.9333 45.0862 42.1167 44.7262 41.9911L37.5063 39.4392H37.5053ZM48.1215 41.1887C47.8594 41.4592 47.4208 41.4693 47.1485 41.2181C46.8762 40.9567 46.867 40.5221 47.1291 40.2517L55.167 31.8909C55.4291 31.6103 55.8575 31.6012 56.14 31.8615C56.4123 32.1229 56.4225 32.5575 56.1594 32.828L48.1215 41.1887Z" fill="#B1BDF7"/>
<path fill-rule="evenodd" clip-rule="evenodd" d="M32.873 45.4131H39.5198V63.0625H32.873V45.4131Z" fill="#637CF7"/>
<path d="M32.8727 44.7263H39.5195C39.8989 44.7263 40.2099 45.0353 40.2099 45.4122V63.0616C40.2099 63.4385 39.8989 63.7474 39.5195 63.7474H32.8727C32.4933 63.7474 32.1914 63.4385 32.1914 63.0616V45.4122C32.1914 45.0353 32.4933 44.7263 32.8727 44.7263ZM38.8382 46.0889H33.5642V62.3849H38.8382V46.0889Z" fill="#637CF7"/>
<path fill-rule="evenodd" clip-rule="evenodd" d="M43.1689 48.2639H49.8147V63.0616H43.1689V48.2639Z" fill="#637CF7"/>
<path d="M43.1691 47.5872H49.8148C50.1942 47.5872 50.5053 47.887 50.5053 48.2639V63.0616C50.5053 63.4384 50.1942 63.7474 49.8148 63.7474H43.1691C42.7897 63.7474 42.4878 63.4384 42.4878 63.0616V48.2639C42.4878 47.887 42.7887 47.5872 43.1691 47.5872ZM49.1335 48.9507H43.8596V62.3859H49.1335V48.9507Z" fill="#637CF7"/>
<path d="M60.1189 38.5984H53.4731V63.0616H60.1189V38.5984Z" fill="#637CF7"/>
<path d="M53.4732 37.9124H60.1189C60.4983 37.9124 60.8002 38.2213 60.8002 38.5982V63.0614C60.8002 63.4383 60.4983 63.7473 60.1189 63.7473H53.4732C53.0938 63.7473 52.7827 63.4383 52.7827 63.0614V38.5982C52.7827 38.2213 53.0938 37.9124 53.4732 37.9124ZM59.4284 39.285H54.1545V62.3857H59.4284V39.285Z" fill="#637CF7"/>
<path d="M25.8958 44.175C26.5383 44.175 27.1217 44.4354 27.5409 44.8518C27.9591 45.2671 28.2222 45.8476 28.2222 46.4848C28.2222 47.122 27.9591 47.6934 27.5409 48.1087V48.1189C27.1228 48.5342 26.5383 48.7855 25.8958 48.7855C25.2533 48.7855 24.6791 48.5342 24.2609 48.1189C23.8427 47.6934 23.5796 47.123 23.5796 46.4858C23.5796 45.8486 23.8427 45.2773 24.2609 44.8528C24.6791 44.4374 25.2635 44.1761 25.8958 44.1761V44.175ZM26.5679 45.8182C26.4027 45.644 26.1589 45.5477 25.8968 45.5477C25.6347 45.5477 25.4011 45.644 25.2257 45.8182C25.0605 45.9823 24.9534 46.2245 24.9534 46.4848C24.9534 46.7452 25.0605 46.9782 25.2257 47.1514C25.4011 47.3155 25.6347 47.4219 25.8968 47.4219C26.1589 47.4219 26.4027 47.3246 26.5679 47.1514C26.7433 46.9772 26.8504 46.7452 26.8504 46.4848C26.8504 46.2245 26.7433 45.9925 26.5679 45.8182Z" fill="#4254AC"/>
<path d="M36.2009 35.9399C36.8333 35.9399 37.4177 36.2013 37.8358 36.6167C38.254 37.032 38.5171 37.6125 38.5171 38.2497C38.5171 38.8869 38.254 39.4583 37.8358 39.8736C37.4177 40.2991 36.8333 40.5504 36.2009 40.5504C35.5686 40.5504 34.975 40.2991 34.5558 39.8736C34.1376 39.4583 33.8745 38.8879 33.8745 38.2497C33.8745 37.6115 34.1376 37.032 34.5558 36.6167C34.974 36.2013 35.5584 35.9399 36.2009 35.9399ZM36.8628 37.5831C36.6976 37.4089 36.4641 37.3025 36.2019 37.3025C35.9398 37.3025 35.6961 37.4089 35.5308 37.5831C35.3554 37.7472 35.2483 37.9894 35.2483 38.2497C35.2483 38.5101 35.3554 38.7431 35.5308 38.9163C35.6961 39.0804 35.9398 39.1868 36.2019 39.1868C36.4641 39.1868 36.6976 39.0804 36.8628 38.9163C37.0383 38.7421 37.1454 38.5101 37.1454 38.2497C37.1454 37.9894 37.0383 37.7472 36.8628 37.5831Z" fill="#4254AC"/>
<path d="M46.4968 39.584C47.1292 39.584 47.7136 39.8454 48.1317 40.2607C48.5601 40.6862 48.813 41.2565 48.813 41.8937C48.813 42.531 48.5601 43.1114 48.1317 43.5268L48.093 43.5653C47.6748 43.9614 47.1098 44.2035 46.4968 44.2035C45.8839 44.2035 45.2709 43.9421 44.8517 43.5177C44.4335 43.1023 44.1704 42.532 44.1704 41.8937C44.1704 41.2555 44.4335 40.6852 44.8517 40.2607L44.9007 40.2222C45.3188 39.8261 45.8737 39.584 46.4968 39.584ZM47.1679 41.2272C46.9925 41.0529 46.7589 40.9567 46.4968 40.9567C46.2347 40.9567 46.0205 41.0438 45.8543 41.1978L45.8247 41.2272C45.6493 41.4014 45.5422 41.6334 45.5422 41.8937C45.5422 42.1541 45.6493 42.3962 45.8247 42.5603C45.9899 42.7346 46.2337 42.8308 46.4958 42.8308C46.7396 42.8308 46.9721 42.7437 47.1383 42.5887L47.1679 42.5593C47.3331 42.3851 47.4402 42.1531 47.4402 41.8927C47.4402 41.6324 47.3331 41.3994 47.1679 41.2261V41.2272Z" fill="#4254AC"/>
<path d="M56.7918 28.875C57.4343 28.875 58.0075 29.1364 58.4369 29.5517C58.8551 29.9671 59.1182 30.5476 59.1182 31.1848C59.1182 31.822 58.8551 32.3923 58.4369 32.8087C58.0188 33.224 57.4343 33.4854 56.7918 33.4854C56.1493 33.4854 55.575 33.2251 55.1467 32.8087C54.7285 32.3933 54.4756 31.8129 54.4756 31.1848C54.4756 30.5567 54.7285 29.9671 55.1467 29.5517L55.1956 29.5132C55.6138 29.1171 56.1788 28.875 56.7918 28.875ZM57.4629 30.508C57.2875 30.3439 57.0539 30.2376 56.7918 30.2376C56.5297 30.2376 56.3155 30.3338 56.1493 30.4888L56.1197 30.5182C55.9545 30.6823 55.8474 30.9244 55.8474 31.1848C55.8474 31.4451 55.9545 31.6771 56.1197 31.8514C56.2951 32.0155 56.5287 32.1218 56.7908 32.1218C57.0529 32.1218 57.2865 32.0155 57.4619 31.8514C57.6373 31.6771 57.7342 31.4451 57.7342 31.1848C57.7342 30.9244 57.6373 30.6823 57.4619 30.5182V30.508H57.4629Z" fill="#4254AC"/>
<path d="M62.3085 65.575C62.6879 65.575 62.999 65.8839 62.999 66.2608C62.999 66.6376 62.6879 66.9375 62.3085 66.9375H20.378C19.9986 66.9375 19.6875 66.6376 19.6875 66.2608C19.6875 65.8839 19.9986 65.575 20.378 65.575H62.3085Z" fill="#637CF7"/>
</g>
<defs>
<linearGradient id="paint0_linear_15262_87695" x1="-11.1563" y1="-12.4687" x2="98.4375" y2="103.688" gradientUnits="userSpaceOnUse">
<stop stop-color="#F8F9FF"/>
<stop offset="1" stop-color="#DBDEFE"/>
</linearGradient>
<linearGradient id="paint1_linear_15262_87695" x1="12.9937" y1="19.9775" x2="77.3847" y2="17.2887" gradientUnits="userSpaceOnUse">
<stop stop-color="#7088FF"/>
<stop offset="1" stop-color="#3A4991"/>
</linearGradient>
<linearGradient id="paint2_linear_15262_87695" x1="11.8125" y1="42.6562" x2="79.6572" y2="42.084" gradientUnits="userSpaceOnUse">
<stop stop-color="#7088FF"/>
<stop offset="1" stop-color="#3A4991"/>
</linearGradient>
<linearGradient id="paint3_linear_15262_87695" x1="11.7896" y1="47.972" x2="79.6319" y2="47.2741" gradientUnits="userSpaceOnUse">
<stop stop-color="#7088FF"/>
<stop offset="1" stop-color="#3A4991"/>
</linearGradient>
<clipPath id="clip0_15262_87695">
<rect width="59.0625" height="59.0625" fill="white" transform="translate(11.8125 13.125)"/>
</clipPath>
<clipPath id="clip1_15262_87695">
<rect width="43.3125" height="38.0625" fill="white" transform="translate(19.6875 28.875)"/>
</clipPath>
</defs>
</svg>
