<svg width="65" height="65" viewBox="0 0 65 65" fill="none" xmlns="http://www.w3.org/2000/svg">
<rect opacity="0.6" x="0.364258" y="0.328125" width="64" height="62.0606" rx="12" fill="url(#paint0_linear_15262_89166)"/>
<g clip-path="url(#clip0_15262_89166)">
<path d="M51.4528 10.573H11.8632C11.1624 10.573 10.5942 11.1411 10.5942 11.842V17.8141C10.5942 18.515 11.1624 19.0831 11.8632 19.0831H51.4528C52.1536 19.0831 52.7217 18.515 52.7217 17.8141V11.842C52.7217 11.1411 52.1536 10.573 51.4528 10.573Z" fill="url(#paint1_linear_15262_89166)"/>
<path d="M12.9308 53.9997C11.0978 53.9997 9.70801 52.4487 9.70801 50.3942V12.5268C9.70801 11.0363 11.2388 9.68677 12.9308 9.68677H50.7982C52.4498 9.68677 54.0209 11.0665 54.0209 12.5268V37.5536C54.0209 37.9665 53.6785 38.3089 53.2656 38.3089C52.8527 38.3089 52.5103 37.9665 52.5103 37.5536V20.4327C52.5103 20.06 52.2081 19.7579 51.8355 19.7579H11.8934C11.7122 19.7579 11.541 19.8284 11.4201 19.9593C11.2892 20.0902 11.2187 20.2514 11.2187 20.4327V50.3942C11.2187 51.633 11.9237 52.489 12.9308 52.489H37.5748C37.9877 52.489 38.3301 52.8315 38.3301 53.2444C38.3301 53.6573 37.9877 53.9997 37.5748 53.9997H12.9308ZM12.9308 11.1974C11.9942 11.1974 11.2992 11.9326 11.2287 12.4362V17.5725C11.2287 17.9451 11.5208 18.2472 11.8934 18.2472H51.8456C52.2182 18.2472 52.5203 17.9451 52.5203 17.5725V12.5268C52.5203 12.5268 52.5203 12.4362 52.5203 12.4261C52.4498 11.9326 51.7449 11.2075 50.8183 11.2075H12.9308V11.1974Z" fill="url(#paint2_linear_15262_89166)"/>
<path d="M16.1735 15.7899C15.5894 15.7899 15.106 15.3064 15.106 14.7223C15.106 14.1382 15.5793 13.6548 16.1735 13.6548C16.7677 13.6548 17.241 14.1382 17.241 14.7223C17.241 15.3064 16.7677 15.7899 16.1735 15.7899Z" fill="#F8F8FF"/>
<path d="M21.2497 15.7899C20.6655 15.7899 20.1821 15.3064 20.1821 14.7223C20.1821 14.1382 20.6655 13.6548 21.2497 13.6548C21.8338 13.6548 22.3172 14.1382 22.3172 14.7223C22.3172 15.3064 21.8439 15.7899 21.2497 15.7899Z" fill="#F8F8FF"/>
<path d="M26.3356 15.7899C25.7515 15.7899 25.2681 15.3064 25.2681 14.7223C25.2681 14.1382 25.7515 13.6548 26.3356 13.6548C26.9197 13.6548 27.4031 14.1382 27.4031 14.7223C27.4031 15.3064 26.9298 15.7899 26.3356 15.7899Z" fill="#F8F8FF"/>
<rect x="10.6909" y="18.6631" width="42.3129" height="34.3366" rx="3" fill="white" stroke="url(#paint3_linear_15262_89166)" stroke-width="2"/>
</g>
<g clip-path="url(#clip1_15262_89166)">
<path d="M26.9254 48.9431C26.808 49.1591 26.9688 49.4175 27.2154 49.4116L28.3742 49.3741C28.4847 49.3741 28.5961 49.4294 28.6583 49.5339L29.25 50.5261C29.3733 50.7352 29.682 50.7293 29.7984 50.5133L31.9189 46.6481C30.7659 46.5436 29.7185 46.0504 28.9226 45.292L26.9254 48.9412V48.9431Z" fill="#4254AC"/>
<path d="M35.8639 45.2932C35.069 46.0517 34.0206 46.5448 32.8677 46.6493L34.9881 50.5145C35.1055 50.7305 35.4132 50.7364 35.5424 50.5273L36.1342 49.5351C36.1894 49.4306 36.3009 49.3754 36.4113 49.3754L37.5702 49.4128C37.8168 49.4188 37.9765 49.1604 37.8601 48.9444L35.863 45.2952L35.8639 45.2932Z" fill="#4254AC"/>
<path d="M44.4817 26.0904H43.3416V24.8329C43.3416 24.6169 43.243 24.4137 43.0763 24.2717C42.9096 24.1366 42.6877 24.0804 42.4786 24.1238L32.3931 26.0845L22.3085 24.1248C22.0985 24.0814 21.8766 24.1376 21.7109 24.2727C21.5442 24.4147 21.4456 24.6179 21.4456 24.8339V26.0914H20.3045C19.904 26.0914 19.5835 26.4178 19.5835 26.8192V40.3873C19.5835 40.7818 19.904 41.1082 20.3045 41.1082H27.3444C27.4243 40.2699 27.7024 39.4927 28.1393 38.827L22.8934 37.8033V25.7087L31.6721 27.4159V36.5704C31.9069 36.5399 32.1465 36.5211 32.3931 36.5211C32.6397 36.5211 32.8803 36.5399 33.1141 36.5704V27.4159L41.8928 25.7087V37.8033L36.6469 38.827C37.0848 39.4927 37.3619 40.2699 37.4418 41.1082H44.4817C44.8822 41.1082 45.2027 40.7818 45.2027 40.3873V26.8182C45.2027 26.4178 44.8822 26.0904 44.4817 26.0904Z" fill="#4254AC"/>
<path d="M24.9321 29.5108L29.3564 30.3718C29.4038 30.3817 29.4492 30.3857 29.4955 30.3857C29.8338 30.3857 30.1366 30.146 30.2036 29.8018C30.2796 29.4102 30.0241 29.0305 29.6326 28.9546L25.2082 28.0936C24.8167 28.0147 24.437 28.2721 24.361 28.6646C24.2851 29.0562 24.5405 29.4349 24.9321 29.5118V29.5108Z" fill="#637CF7"/>
<path d="M24.9321 32.8986L29.3564 33.7596C29.4038 33.7695 29.4492 33.7734 29.4955 33.7734C29.8338 33.7734 30.1366 33.5338 30.2036 33.1895C30.2796 32.798 30.0241 32.4183 29.6326 32.3423L25.2082 31.4813C24.8167 31.4005 24.437 31.6599 24.361 32.0524C24.2851 32.4439 24.5405 32.8236 24.9321 32.8996V32.8986Z" fill="#637CF7"/>
<path d="M24.9321 36.2866L29.3564 37.1476C29.4038 37.1574 29.4492 37.1614 29.4955 37.1614C29.8338 37.1614 30.1366 36.9217 30.2036 36.5775C30.2796 36.186 30.0241 35.8063 29.6326 35.7303L25.2082 34.8693C24.8167 34.7875 24.437 35.0478 24.361 35.4404C24.2851 35.8319 24.5405 36.2106 24.9321 36.2876V36.2866Z" fill="#637CF7"/>
<path d="M35.2928 30.3856C35.3391 30.3856 35.3855 30.3817 35.4319 30.3718L39.8562 29.5108C40.2478 29.4339 40.5032 29.0552 40.4273 28.6636C40.3513 28.2721 39.9706 28.0137 39.5801 28.0926L35.1557 28.9536C34.7642 29.0295 34.5087 29.4092 34.5847 29.8008C34.6517 30.146 34.9545 30.3846 35.2928 30.3846V30.3856Z" fill="#637CF7"/>
<path d="M34.5847 33.1888C34.6517 33.534 34.9545 33.7727 35.2928 33.7727C35.3391 33.7727 35.3855 33.7687 35.4319 33.7588L39.8562 32.8978C40.2478 32.8209 40.5032 32.4422 40.4273 32.0506C40.3513 31.6581 39.9706 31.3997 39.5801 31.4796L35.1557 32.3406C34.7642 32.4175 34.5087 32.7963 34.5847 33.1878V33.1888Z" fill="#637CF7"/>
<path d="M34.5847 36.5766C34.6517 36.9217 34.9545 37.1604 35.2928 37.1604C35.3391 37.1604 35.3855 37.1565 35.4319 37.1466L39.8562 36.2856C40.2478 36.2087 40.5032 35.83 40.4273 35.4384C40.3513 35.0459 39.9706 34.7855 39.5801 34.8674L35.1557 35.7284C34.7642 35.8053 34.5087 36.184 34.5847 36.5756V36.5766Z" fill="#637CF7"/>
<path d="M36.2367 41.5976C36.2367 39.4752 34.5167 37.7551 32.3942 37.7551C30.2718 37.7551 28.5518 39.4752 28.5518 41.5976C28.5518 43.7201 30.2718 45.4401 32.3942 45.4401C34.5167 45.4401 36.2367 43.7201 36.2367 41.5976ZM34.2257 41.3372L33.6083 41.927C33.559 41.9734 33.5373 42.0424 33.5492 42.1095L33.702 42.9498C33.7494 43.2102 33.4752 43.4094 33.2424 43.2841L32.4909 42.8798C32.4307 42.8472 32.3587 42.8472 32.2996 42.8798L31.547 43.2841C31.3143 43.4094 31.0401 43.2102 31.0874 42.9498L31.2403 42.1095C31.2522 42.0424 31.2305 41.9744 31.1811 41.927L30.5637 41.3372C30.3724 41.1548 30.4769 40.8323 30.7393 40.7968L31.5855 40.6824C31.6526 40.6735 31.7108 40.6311 31.7404 40.5699L32.1112 39.8006C32.2256 39.562 32.5649 39.562 32.6793 39.8006L33.0501 40.5699C33.0797 40.6311 33.1379 40.6735 33.205 40.6824L34.0512 40.7968C34.3135 40.8323 34.4181 41.1548 34.2267 41.3372H34.2257Z" fill="#B1BDF7"/>
</g>
<defs>
<linearGradient id="paint0_linear_15262_89166" x1="-8.13574" y1="-8.884" x2="72.6513" y2="79.4163" gradientUnits="userSpaceOnUse">
<stop stop-color="#F8F9FF"/>
<stop offset="1" stop-color="#DBDEFE"/>
</linearGradient>
<linearGradient id="paint1_linear_15262_89166" x1="10.5942" y1="14.828" x2="58.905" y2="12.8107" gradientUnits="userSpaceOnUse">
<stop stop-color="#7088FF"/>
<stop offset="1" stop-color="#3A4991"/>
</linearGradient>
<linearGradient id="paint2_linear_15262_89166" x1="9.70801" y1="31.8432" x2="60.61" y2="31.4139" gradientUnits="userSpaceOnUse">
<stop stop-color="#7088FF"/>
<stop offset="1" stop-color="#3A4991"/>
</linearGradient>
<linearGradient id="paint3_linear_15262_89166" x1="9.69092" y1="35.8314" x2="60.5911" y2="35.3078" gradientUnits="userSpaceOnUse">
<stop stop-color="#7088FF"/>
<stop offset="1" stop-color="#3A4991"/>
</linearGradient>
<clipPath id="clip0_15262_89166">
<rect width="44.3129" height="44.3129" fill="white" transform="translate(9.70801 9.68677)"/>
</clipPath>
<clipPath id="clip1_15262_89166">
<rect width="25.6202" height="26.57" fill="white" transform="translate(19.5835 24.1101)"/>
</clipPath>
</defs>
</svg>
