<svg width="84" height="84" viewBox="0 0 84 84" fill="none" xmlns="http://www.w3.org/2000/svg">
<rect opacity="0.6" width="84" height="84" rx="12" fill="url(#paint0_linear_15262_89068)"/>
<g clip-path="url(#clip0_15262_89068)">
<path d="M67.452 14.3062H14.685C13.7509 14.3062 12.9937 15.0634 12.9937 15.9975V23.9575C12.9937 24.8916 13.7509 25.6488 14.685 25.6488H67.452C68.3861 25.6488 69.1433 24.8916 69.1433 23.9575V15.9975C69.1433 15.0634 68.3861 14.3062 67.452 14.3062Z" fill="url(#paint1_linear_15262_89068)"/>
<path d="M16.108 72.1875C13.6649 72.1875 11.8125 70.1203 11.8125 67.382V16.9104C11.8125 14.9237 13.8528 13.125 16.108 13.125H66.5795C68.781 13.125 70.875 14.964 70.875 16.9104V50.2673C70.875 50.8176 70.4186 51.274 69.8683 51.274C69.3179 51.274 68.8615 50.8176 68.8615 50.2673V27.4477C68.8615 26.951 68.4588 26.5483 67.9621 26.5483H14.7254C14.4837 26.5483 14.2555 26.6423 14.0945 26.8168C13.92 26.9913 13.826 27.206 13.826 27.4477V67.382C13.826 69.033 14.7656 70.174 16.108 70.174H48.9548C49.5051 70.174 49.9615 70.6304 49.9615 71.1808C49.9615 71.7311 49.5051 72.1875 48.9548 72.1875H16.108ZM16.108 15.1385C14.8596 15.1385 13.9334 16.1184 13.8394 16.7896V23.6354C13.8394 24.1321 14.2287 24.5348 14.7254 24.5348H67.9756C68.4722 24.5348 68.8749 24.1321 68.8749 23.6354V16.9104C68.8749 16.9104 68.8749 16.7896 68.8749 16.7761C68.781 16.1184 67.8413 15.1519 66.6064 15.1519H16.108V15.1385Z" fill="url(#paint2_linear_15262_89068)"/>
<path d="M20.4302 21.2596C19.6516 21.2596 19.0073 20.6152 19.0073 19.8367C19.0073 19.0581 19.6382 18.4138 20.4302 18.4138C21.2222 18.4138 21.8531 19.0581 21.8531 19.8367C21.8531 20.6152 21.2222 21.2596 20.4302 21.2596Z" fill="#F8F8FF"/>
<path d="M27.1958 21.2596C26.4173 21.2596 25.7729 20.6152 25.7729 19.8367C25.7729 19.0581 26.4173 18.4138 27.1958 18.4138C27.9744 18.4138 28.6187 19.0581 28.6187 19.8367C28.6187 20.6152 27.9878 21.2596 27.1958 21.2596Z" fill="#F8F8FF"/>
<path d="M33.9741 21.2596C33.1956 21.2596 32.5513 20.6152 32.5513 19.8367C32.5513 19.0581 33.1956 18.4138 33.9741 18.4138C34.7527 18.4138 35.397 19.0581 35.397 19.8367C35.397 20.6152 34.7661 21.2596 33.9741 21.2596Z" fill="#F8F8FF"/>
<rect x="12.7896" y="24.7563" width="57.0625" height="46.4313" rx="3" fill="white" stroke="url(#paint3_linear_15262_89068)" stroke-width="2"/>
</g>
<rect width="16.8" height="16.7998" rx="3" transform="matrix(0.968687 -0.248284 0.24829 0.968686 20.3369 49.5503)" fill="#B1BDF7"/>
<rect width="16.8" height="16.7998" rx="3" transform="matrix(0.951941 0.306281 -0.306288 0.951939 36.1777 27.4106)" fill="#637CF7"/>
<path d="M42.6502 32.9836L44.7025 33.6442L45.2165 44.3399L43.2308 43.7008L43.1779 41.1689L39.4997 39.9851L37.98 42.011L35.9943 41.3719L42.6502 32.9836ZM43.1234 39.3277L43.0382 36.6677L43.0649 35.3967L42.9583 35.3624L42.2386 36.4103L40.6179 38.5213L43.1234 39.3277Z" fill="white"/>
<path d="M26.8578 51.5046L30.655 50.531C31.0709 50.4244 31.477 50.3926 31.8734 50.4355C32.2675 50.4693 32.6258 50.5702 32.9482 50.738C33.2774 50.8945 33.5583 51.1067 33.7908 51.3747C34.0233 51.6427 34.1847 51.953 34.2751 52.3056C34.4072 52.8209 34.3919 53.2873 34.2292 53.7048C34.0732 54.111 33.833 54.452 33.5087 54.7278L33.5365 54.8363C34.0801 54.8896 34.5509 55.0724 34.9489 55.3847C35.3537 55.6856 35.6291 56.1209 35.7751 56.6904C35.8817 57.1063 35.8921 57.5035 35.806 57.8821C35.7267 58.2493 35.5726 58.5875 35.3435 58.8967C35.1145 59.206 34.8218 59.4737 34.4655 59.7C34.1182 59.9239 33.7231 60.0926 33.2801 60.2062L29.3473 61.2145L26.8578 51.5046ZM31.5346 54.5257C31.9596 54.4168 32.2561 54.2203 32.4241 53.9364C32.5989 53.641 32.6458 53.3352 32.5646 53.0187C32.4835 52.7023 32.301 52.46 32.017 52.292C31.733 52.1239 31.3921 52.0908 30.9943 52.1928L29.1093 52.6761L29.7039 54.9951L31.5346 54.5257ZM32.7812 58.542C33.2422 58.4238 33.5659 58.2204 33.752 57.9318C33.9359 57.6341 33.9814 57.3045 33.8887 56.9428C33.796 56.5812 33.5929 56.3153 33.2795 56.1451C32.9728 55.9636 32.5754 55.9354 32.0871 56.0606L30.1072 56.5682L30.7469 59.0635L32.7812 58.542Z" fill="white"/>
<rect x="41.5547" y="48.5928" width="16.8" height="16.7998" rx="3" fill="#4254AC"/>
<path d="M55.1284 59.9242C54.6338 60.5215 54.0504 60.9788 53.3784 61.2962C52.7064 61.6042 51.9551 61.7582 51.1244 61.7582C50.3778 61.7582 49.6824 61.6228 49.0384 61.3522C48.4038 61.0815 47.8531 60.7128 47.3864 60.2462C46.9198 59.7795 46.5511 59.2288 46.2804 58.5942C46.0098 57.9502 45.8744 57.2595 45.8744 56.5222C45.8744 55.7848 46.0098 55.0988 46.2804 54.4642C46.5511 53.8202 46.9198 53.2648 47.3864 52.7982C47.8531 52.3315 48.4038 51.9628 49.0384 51.6922C49.6824 51.4215 50.3778 51.2862 51.1244 51.2862C51.9271 51.2862 52.6318 51.4262 53.2384 51.7062C53.8544 51.9862 54.4004 52.3922 54.8764 52.9242L53.5464 54.2122C53.2478 53.8668 52.9024 53.5915 52.5104 53.3862C52.1278 53.1808 51.6704 53.0782 51.1384 53.0782C50.6718 53.0782 50.2331 53.1622 49.8224 53.3302C49.4118 53.4888 49.0524 53.7175 48.7444 54.0162C48.4458 54.3148 48.2078 54.6788 48.0304 55.1082C47.8531 55.5282 47.7644 55.9995 47.7644 56.5222C47.7644 57.0448 47.8531 57.5208 48.0304 57.9502C48.2078 58.3702 48.4458 58.7295 48.7444 59.0282C49.0524 59.3268 49.4118 59.5602 49.8224 59.7282C50.2331 59.8868 50.6718 59.9662 51.1384 59.9662C51.6984 59.9662 52.1931 59.8542 52.6224 59.6302C53.0611 59.3968 53.4484 59.0702 53.7844 58.6502L55.1284 59.9242Z" fill="white"/>
<defs>
<linearGradient id="paint0_linear_15262_89068" x1="-11.1563" y1="-12.4687" x2="98.4375" y2="103.688" gradientUnits="userSpaceOnUse">
<stop stop-color="#F8F9FF"/>
<stop offset="1" stop-color="#DBDEFE"/>
</linearGradient>
<linearGradient id="paint1_linear_15262_89068" x1="12.9937" y1="19.9775" x2="77.3847" y2="17.2887" gradientUnits="userSpaceOnUse">
<stop stop-color="#7088FF"/>
<stop offset="1" stop-color="#3A4991"/>
</linearGradient>
<linearGradient id="paint2_linear_15262_89068" x1="11.8125" y1="42.6562" x2="79.6572" y2="42.084" gradientUnits="userSpaceOnUse">
<stop stop-color="#7088FF"/>
<stop offset="1" stop-color="#3A4991"/>
</linearGradient>
<linearGradient id="paint3_linear_15262_89068" x1="11.7896" y1="47.972" x2="79.6319" y2="47.2741" gradientUnits="userSpaceOnUse">
<stop stop-color="#7088FF"/>
<stop offset="1" stop-color="#3A4991"/>
</linearGradient>
<clipPath id="clip0_15262_89068">
<rect width="59.0625" height="59.0625" fill="white" transform="translate(11.8125 13.125)"/>
</clipPath>
</defs>
</svg>
