<svg width="48" height="48" viewBox="0 0 48 48" fill="none" xmlns="http://www.w3.org/2000/svg">
<g clip-path="url(#clip0_3538_55271)">
<path d="M19.9835 10.788C20.3549 9.93175 20.0779 8.93178 19.3162 8.3818C18.5545 7.83182 17.5158 7.88182 16.8044 8.4943L0.688784 22.4938C0.0592661 23.0438 -0.16736 23.925 0.128513 24.7C0.424386 25.4749 1.17981 25.9999 2.01707 25.9999H9.03619L4.1952 37.212C3.82378 38.0683 4.10077 39.0682 4.86249 39.6182C5.6242 40.1682 6.66291 40.1182 7.37426 39.5057L23.4899 25.5062C24.1194 24.9562 24.3461 24.075 24.0502 23.3C23.7543 22.5251 23.0052 22.0063 22.1616 22.0063H15.1425L19.9835 10.788Z" fill="url(#paint0_linear_3538_55271)"/>
<path d="M-5.47686 26.84C-4.53959 29.295 -2.46638 31.1065 0.0194128 31.747L-1.30923 34.8243C-1.31012 34.8263 -1.31101 34.8284 -1.31189 34.8305C-2.81039 38.2928 -1.67481 42.2986 1.35017 44.4827C4.38756 46.6758 8.49686 46.4567 11.2891 44.0526L11.2991 44.0439L11.3091 44.0353L27.4247 30.0358L27.4311 30.0302L27.4375 30.0247C29.9186 27.8571 30.867 24.333 29.6556 21.16L24.0502 23.3L29.6556 21.16C28.7131 18.6915 26.6365 16.8936 24.1579 16.2579L25.4879 13.1757C25.489 13.1734 25.49 13.171 25.491 13.1686C26.9889 9.70653 25.8532 5.70119 22.8285 3.51728C19.7911 1.32419 15.6818 1.54331 12.8896 3.94744L12.8796 3.95605L12.8696 3.9647L-3.24603 17.9642L-3.25242 17.9698L-3.2588 17.9753C-5.73985 20.1429 -6.68826 23.667 -5.47686 26.84Z" stroke="white" stroke-opacity="0.12" stroke-width="12"/>
</g>
<defs>
<linearGradient id="paint0_linear_3538_55271" x1="12.0894" y1="8" x2="12.0894" y2="40" gradientUnits="userSpaceOnUse">
<stop stop-color="#9DCEFB"/>
<stop offset="1" stop-color="#4A9DF8"/>
</linearGradient>
<clipPath id="clip0_3538_55271">
<rect width="48" height="48" fill="white"/>
</clipPath>
</defs>
</svg>
