<svg width="48" height="48" viewBox="0 0 48 48" fill="none" xmlns="http://www.w3.org/2000/svg">
<g clip-path="url(#clip0_3538_55282)">
<path d="M3.5 10C1.56953 10 0 11.5695 0 13.5V29.25C0 31.1805 1.56953 32.75 3.5 32.75H13.125L12.5398 34.5H8.75C7.78203 34.5 7 35.282 7 36.25C7 37.218 7.78203 38 8.75 38H22.75C23.718 38 24.5 37.218 24.5 36.25C24.5 35.282 23.718 34.5 22.75 34.5H18.9602L18.375 32.75H28C29.9305 32.75 31.5 31.1805 31.5 29.25V13.5C31.5 11.5695 29.9305 10 28 10H3.5ZM28 13.5V25.75H3.5V13.5H28Z" fill="url(#paint0_linear_3538_55282)"/>
</g>
<defs>
<linearGradient id="paint0_linear_3538_55282" x1="15.75" y1="10" x2="15.75" y2="38" gradientUnits="userSpaceOnUse">
<stop stop-color="#97F2B5"/>
<stop offset="1" stop-color="#62C67A"/>
</linearGradient>
<clipPath id="clip0_3538_55282">
<rect width="31.5" height="28" fill="white" transform="translate(0 10)"/>
</clipPath>
</defs>
</svg>
