<svg width="48" height="48" viewBox="0 0 48 48" fill="none" xmlns="http://www.w3.org/2000/svg">
<path d="M11.6 40C10.88 40 10.2467 39.8267 9.7 39.48C9.15333 39.1333 8.8 38.6533 8.64 38.04H8.08C7.44 38.04 6.88 37.8 6.4 37.32C5.92 36.84 5.68 36.28 5.68 35.64V29.92C3.92 28.7733 2.53333 27.3067 1.52 25.52C0.506666 23.7333 0 21.76 0 19.6C0 16.3733 1.12667 13.6333 3.38 11.38C5.63333 9.12667 8.37333 8 11.6 8C14.8267 8 17.5667 9.12667 19.82 11.38C22.0733 13.6333 23.2 16.3733 23.2 19.6C23.2 21.76 22.6933 23.7333 21.68 25.52C20.6667 27.3067 19.28 28.7733 17.52 29.92V35.64C17.52 36.28 17.28 36.84 16.8 37.32C16.32 37.8 15.76 38.04 15.12 38.04H14.56C14.4 38.6533 14.0467 39.1333 13.5 39.48C12.9533 39.8267 12.32 40 11.6 40ZM8.08 35.64H15.12V33.88H8.08V35.64ZM8.08 32.28H15.12V30.68H8.08V32.28ZM10.68 28.28H12.52V22.8L15.6 19.72C15.76 19.56 15.84 19.36 15.84 19.12C15.84 18.88 15.76 18.6667 15.6 18.48C15.4133 18.32 15.2 18.24 14.96 18.24C14.72 18.24 14.52 18.32 14.36 18.48L11.6 21.24L8.88 18.48C8.69333 18.32 8.48 18.24 8.24 18.24C8 18.24 7.8 18.32 7.64 18.48C7.45333 18.6667 7.36 18.88 7.36 19.12C7.36 19.36 7.44 19.56 7.6 19.72L10.68 22.8V28.28Z" fill="url(#paint0_linear_3538_55295)"/>
<defs>
<linearGradient id="paint0_linear_3538_55295" x1="11.6" y1="8" x2="11.6" y2="40" gradientUnits="userSpaceOnUse">
<stop stop-color="#FFD69E"/>
<stop offset="1" stop-color="#FF8694"/>
</linearGradient>
</defs>
</svg>
