<svg width="25" height="24" viewBox="0 0 25 24" fill="none" xmlns="http://www.w3.org/2000/svg">
<rect x="0.5" width="24" height="24" rx="12" fill="white"/>
<mask id="mask0_1271_29022" style="mask-type:alpha" maskUnits="userSpaceOnUse" x="0" y="0" width="25" height="24">
<rect x="0.5" width="24" height="24" fill="#D9D9D9"/>
</mask>
<g mask="url(#mask0_1271_29022)">
<path d="M10.4969 13.5998L16.3969 7.6998C16.5802 7.51647 16.8135 7.4248 17.0969 7.4248C17.3802 7.4248 17.6135 7.51647 17.7969 7.6998C17.9802 7.88314 18.0719 8.11647 18.0719 8.3998C18.0719 8.68314 17.9802 8.91647 17.7969 9.0998L11.1969 15.6998C10.9969 15.8998 10.7635 15.9998 10.4969 15.9998C10.2302 15.9998 9.99688 15.8998 9.79688 15.6998L7.19687 13.0998C7.01354 12.9165 6.92188 12.6831 6.92188 12.3998C6.92188 12.1165 7.01354 11.8831 7.19687 11.6998C7.38021 11.5165 7.61354 11.4248 7.89687 11.4248C8.18021 11.4248 8.41354 11.5165 8.59688 11.6998L10.4969 13.5998Z" fill="#307DF6"/>
</g>
</svg>
