<svg width="14" height="14" viewBox="0 0 14 14" fill="none" xmlns="http://www.w3.org/2000/svg">
<path d="M6.99961 8.05001L1.74961 13.3C1.59961 13.45 1.42461 13.525 1.22461 13.525C1.02461 13.525 0.849609 13.45 0.699609 13.3C0.549609 13.15 0.474609 12.975 0.474609 12.775C0.474609 12.575 0.549609 12.4 0.699609 12.25L5.94961 7.00001L0.699609 1.75001C0.549609 1.60001 0.474609 1.42501 0.474609 1.22501C0.474609 1.02501 0.549609 0.850006 0.699609 0.700006C0.849609 0.550006 1.02461 0.475006 1.22461 0.475006C1.42461 0.475006 1.59961 0.550006 1.74961 0.700006L6.99961 5.95001L12.2496 0.700006C12.3996 0.550006 12.5746 0.475006 12.7746 0.475006C12.9746 0.475006 13.1496 0.550006 13.2996 0.700006C13.4496 0.850006 13.5246 1.02501 13.5246 1.22501C13.5246 1.42501 13.4496 1.60001 13.2996 1.75001L8.04961 7.00001L13.2996 12.25C13.4496 12.4 13.5246 12.575 13.5246 12.775C13.5246 12.975 13.4496 13.15 13.2996 13.3C13.1496 13.45 12.9746 13.525 12.7746 13.525C12.5746 13.525 12.3996 13.45 12.2496 13.3L6.99961 8.05001Z" fill="white"/>
</svg>
