<svg width="64" height="64" viewBox="0 0 64 64" fill="none" xmlns="http://www.w3.org/2000/svg">
<rect opacity="0.6" width="64" height="64" rx="12" fill="url(#paint0_linear_15262_84586)"/>
<path fill-rule="evenodd" clip-rule="evenodd" d="M52.968 45.2923H11.0325V23.8246C11.0325 23.4906 11.1792 23.1914 11.4124 22.9874C11.747 22.6944 11.7809 22.185 11.4875 21.8495C11.1945 21.5149 10.6851 21.481 10.3496 21.7744C9.77945 22.2738 9.41959 23.0065 9.41959 23.8246V45.2923H7.80669C7.36129 45.2923 7 45.6535 7 46.0989C7 48.7709 9.16679 50.9377 11.8387 50.9377H52.1613C54.8332 50.9377 57 48.7709 57 46.0989C57 45.654 56.6387 45.2923 56.1933 45.2923H54.5804V23.8246C54.5804 23.0069 54.2206 22.2738 53.6504 21.7744C53.3149 21.481 52.805 21.5149 52.5125 21.8495C52.2191 22.185 52.253 22.6949 52.5876 22.9874C52.8208 23.1914 52.9675 23.4906 52.9675 23.8246L52.968 45.2923ZM27.5644 46.9056H36.4351C36.4351 47.3506 36.0738 47.7123 35.6284 47.7123H28.3701C27.9247 47.7123 27.5644 47.351 27.5644 46.9056Z" fill="url(#paint1_linear_15262_84586)"/>
<path d="M54 46H54.5V45.5V24C54.5 22.6193 53.3807 21.5 52 21.5H12C10.6193 21.5 9.5 22.6193 9.5 24V45.5V46H10H54Z" fill="white" stroke="url(#paint2_linear_15262_84586)"/>
<rect x="13.2" y="12.2" width="37.6" height="26.6" rx="2.8" fill="white" stroke="url(#paint3_linear_15262_84586)" stroke-width="1.6"/>
<path d="M29.3332 23.3333H24V28.6665H29.3332V23.3333Z" fill="#3167FF"/>
<path d="M34.6642 23.3333H29.3311V28.6665H34.6642V23.3333Z" fill="#99BDFD"/>
<path d="M29.3366 23.3333L26.6699 25.9999L29.3366 28.6665V23.3333Z" fill="#6E9BFE"/>
<path d="M29.3332 28.6667V34L24 28.6667H29.3332Z" fill="#2B52E0"/>
<path d="M29.3311 28.6663V33.9995H34.6642V28.6663H29.3311Z" fill="#3167FF"/>
<path d="M34.6699 28.6667H40.0031L34.6699 34V28.6667Z" fill="#2B52E0"/>
<path d="M34.6678 28.6667H40.001V23.3335H34.6678V28.6667Z" fill="#3167FF"/>
<path d="M34.6699 23.3331V18L40.0031 23.3331H34.6699Z" fill="#2B52E0"/>
<path d="M34.6699 23.3332V18H29.3367V23.3332H34.6699Z" fill="#3167FF"/>
<path d="M29.3332 23.3331H24L29.3332 18V23.3331Z" fill="#2B52E0"/>
<path d="M29.3311 23.3333L31.9976 25.9999L29.3311 28.6665V23.3333Z" fill="#99BDFD"/>
<path d="M24 23.3333L26.6665 25.9999L24 28.6665V23.3333Z" fill="#1D42AA"/>
<path d="M29.3311 28.6667L31.9976 31.3333L34.6641 28.6667H29.3311Z" fill="#6E9BFE"/>
<path d="M29.3311 33.9999L31.9976 31.3333L34.6641 33.9999H29.3311Z" fill="#1D42AA"/>
<path d="M34.6699 28.6665L37.3366 25.9999L34.6699 23.3333V28.6665Z" fill="#6E9BFE"/>
<path d="M39.9976 28.6665L37.3311 25.9999L39.9976 23.3333V28.6665Z" fill="#1D42AA"/>
<path d="M34.6641 23.3333L31.9976 20.6667L29.3311 23.3333H34.6641Z" fill="#6E9BFE"/>
<path d="M34.6641 18L31.9976 20.6666L29.3311 18H34.6641Z" fill="#1D42AA"/>
<path d="M34.6665 23.3333L32 25.9999L34.6665 28.6665V23.3333Z" fill="#99BDFD"/>
<path d="M34.6621 28.6665L37.3295 31.3339L39.9967 28.6665H34.6621Z" fill="#2B52E0"/>
<path d="M34.6699 23.3347L37.3373 20.6673L34.6699 18V23.3347Z" fill="#2B52E0"/>
<path d="M29.3346 23.3328L26.6672 20.6655L24 23.3328H29.3346Z" fill="#2B52E0"/>
<path d="M29.3373 28.665L26.6699 31.3323L29.3373 33.9997V28.665Z" fill="#2B52E0"/>
<g opacity="0.2">
<path d="M29.3332 23.3333H24V28.6665H29.3332V23.3333Z" fill="white"/>
<path d="M34.6642 23.3333H29.3311V28.6665H34.6642V23.3333Z" fill="white"/>
<path d="M29.3366 23.3333L26.6699 25.9999L29.3366 28.6665V23.3333Z" fill="white"/>
<path d="M29.3332 28.6667V34L24 28.6667H29.3332Z" fill="white"/>
<path d="M29.3311 28.6663V33.9995H34.6642V28.6663H29.3311Z" fill="white"/>
<path d="M34.6699 28.6667H40.0031L34.6699 34V28.6667Z" fill="white"/>
<path d="M34.6678 28.6667H40.001V23.3335H34.6678V28.6667Z" fill="white"/>
<path d="M34.6699 23.3331V18L40.0031 23.3331H34.6699Z" fill="white"/>
<path d="M34.6699 23.3332V18H29.3367V23.3332H34.6699Z" fill="white"/>
<path d="M29.3332 23.3331H24L29.3332 18V23.3331Z" fill="white"/>
<path d="M29.3311 23.3333L31.9976 25.9999L29.3311 28.6665V23.3333Z" fill="white"/>
<path d="M24 23.3333L26.6665 25.9999L24 28.6665V23.3333Z" fill="white"/>
<path d="M29.3311 28.6667L31.9976 31.3333L34.6641 28.6667H29.3311Z" fill="white"/>
<path d="M29.3311 33.9999L31.9976 31.3333L34.6641 33.9999H29.3311Z" fill="white"/>
<path d="M34.6699 28.6665L37.3366 25.9999L34.6699 23.3333V28.6665Z" fill="white"/>
<path d="M39.9976 28.6665L37.3311 25.9999L39.9976 23.3333V28.6665Z" fill="white"/>
<path d="M34.6641 23.3333L31.9976 20.6667L29.3311 23.3333H34.6641Z" fill="white"/>
<path d="M34.6641 18L31.9976 20.6666L29.3311 18H34.6641Z" fill="white"/>
<path d="M34.6665 23.3333L32 25.9999L34.6665 28.6665V23.3333Z" fill="white"/>
<path d="M34.6621 28.6665L37.3295 31.3339L39.9967 28.6665H34.6621Z" fill="white"/>
<path d="M34.6699 23.3347L37.3373 20.6673L34.6699 18V23.3347Z" fill="white"/>
<path d="M29.3346 23.3328L26.6672 20.6655L24 23.3328H29.3346Z" fill="white"/>
<path d="M29.3373 28.665L26.6699 31.3323L29.3373 33.9997V28.665Z" fill="white"/>
</g>
<defs>
<linearGradient id="paint0_linear_15262_84586" x1="-8.5" y1="-9.5" x2="75" y2="79" gradientUnits="userSpaceOnUse">
<stop stop-color="#F8F9FF"/>
<stop offset="1" stop-color="#DBDEFE"/>
</linearGradient>
<linearGradient id="paint1_linear_15262_84586" x1="7" y1="36.2562" x2="64.4269" y2="35.4313" gradientUnits="userSpaceOnUse">
<stop stop-color="#7088FF"/>
<stop offset="1" stop-color="#3A4991"/>
</linearGradient>
<linearGradient id="paint2_linear_15262_84586" x1="10" y1="33.75" x2="60.5335" y2="32.9519" gradientUnits="userSpaceOnUse">
<stop stop-color="#7088FF"/>
<stop offset="1" stop-color="#3A4991"/>
</linearGradient>
<linearGradient id="paint3_linear_15262_84586" x1="14" y1="25.5" x2="55.3498" y2="24.9977" gradientUnits="userSpaceOnUse">
<stop stop-color="#7088FF"/>
<stop offset="1" stop-color="#3A4991"/>
</linearGradient>
</defs>
</svg>
