<svg width="16" height="17" viewBox="0 0 16 17" fill="none" xmlns="http://www.w3.org/2000/svg">
<path d="M15.1479 14.8519L11.6273 11.3321C12.6477 10.1071 13.1566 8.53577 13.048 6.94512C12.9394 5.35447 12.2217 3.86692 11.0443 2.79193C9.86684 1.71693 8.32029 1.13725 6.72635 1.17348C5.13241 1.2097 3.6138 1.85904 2.48642 2.98642C1.35904 4.1138 0.709701 5.63241 0.673476 7.22635C0.637251 8.82029 1.21693 10.3668 2.29193 11.5443C3.36692 12.7217 4.85447 13.4394 6.44512 13.548C8.03577 13.6566 9.60705 13.1477 10.8321 12.1273L14.3519 15.6479C14.4042 15.7001 14.4663 15.7416 14.5345 15.7699C14.6028 15.7982 14.676 15.8127 14.7499 15.8127C14.8238 15.8127 14.897 15.7982 14.9653 15.7699C15.0336 15.7416 15.0956 15.7001 15.1479 15.6479C15.2001 15.5956 15.2416 15.5336 15.2699 15.4653C15.2982 15.397 15.3127 15.3238 15.3127 15.2499C15.3127 15.176 15.2982 15.1028 15.2699 15.0345C15.2416 14.9663 15.2001 14.9042 15.1479 14.8519ZM1.81242 7.37492C1.81242 6.37365 2.10933 5.39487 2.6656 4.56234C3.22188 3.72982 4.01253 3.08094 4.93758 2.69778C5.86263 2.31461 6.88053 2.21435 7.86256 2.40969C8.84459 2.60503 9.74664 3.08718 10.4546 3.79519C11.1626 4.50319 11.6448 5.40524 11.8401 6.38727C12.0355 7.3693 11.9352 8.3872 11.5521 9.31225C11.1689 10.2373 10.52 11.028 9.68749 11.5842C8.85497 12.1405 7.87618 12.4374 6.87492 12.4374C5.53271 12.4359 4.24591 11.9021 3.29683 10.953C2.34775 10.0039 1.81391 8.71712 1.81242 7.37492Z" fill="url(#paint0_linear_15311_2100)" stroke="url(#paint1_linear_15311_2100)"/>
<defs>
<linearGradient id="paint0_linear_15311_2100" x1="0.671875" y1="8.4923" x2="17.4897" y2="8.35044" gradientUnits="userSpaceOnUse">
<stop stop-color="#7088FF"/>
<stop offset="1" stop-color="#3A4991"/>
</linearGradient>
<linearGradient id="paint1_linear_15311_2100" x1="0.671875" y1="8.4923" x2="17.4897" y2="8.35044" gradientUnits="userSpaceOnUse">
<stop stop-color="#7088FF"/>
<stop offset="1" stop-color="#3A4991"/>
</linearGradient>
</defs>
</svg>
