<svg width="21" height="21" viewBox="0 0 21 21" fill="none" xmlns="http://www.w3.org/2000/svg">
<path d="M18.4424 17.558L14.5306 13.6471C15.6644 12.2859 16.2298 10.54 16.1091 8.77263C15.9884 7.00524 15.191 5.35241 13.8828 4.15797C12.5745 2.96353 10.8561 2.31944 9.0851 2.35969C7.31406 2.39994 5.62671 3.12143 4.37407 4.37407C3.12143 5.62671 2.39994 7.31406 2.35969 9.0851C2.31944 10.8561 2.96353 12.5745 4.15797 13.8828C5.35241 15.191 7.00524 15.9884 8.77263 16.1091C10.54 16.2298 12.2859 15.6644 13.6471 14.5306L17.558 18.4424C17.6161 18.5004 17.685 18.5465 17.7609 18.5779C17.8367 18.6094 17.9181 18.6255 18.0002 18.6255C18.0823 18.6255 18.1636 18.6094 18.2395 18.5779C18.3154 18.5465 18.3843 18.5004 18.4424 18.4424C18.5004 18.3843 18.5465 18.3154 18.5779 18.2395C18.6094 18.1636 18.6255 18.0823 18.6255 18.0002C18.6255 17.9181 18.6094 17.8367 18.5779 17.7609C18.5465 17.685 18.5004 17.6161 18.4424 17.558ZM3.62518 9.25018C3.62518 8.13766 3.95508 7.05012 4.57316 6.1251C5.19124 5.20007 6.06975 4.4791 7.09758 4.05336C8.12542 3.62761 9.25642 3.51622 10.3476 3.73326C11.4387 3.9503 12.441 4.48603 13.2277 5.2727C14.0143 6.05937 14.5501 7.06165 14.7671 8.1528C14.9841 9.24394 14.8727 10.3749 14.447 11.4028C14.0213 12.4306 13.3003 13.3091 12.3753 13.9272C11.4502 14.5453 10.3627 14.8752 9.25018 14.8752C7.75884 14.8735 6.32906 14.2804 5.27453 13.2258C4.22 12.1713 3.62683 10.7415 3.62518 9.25018Z" fill="white"/>
</svg>
