<svg width="65" height="65" viewBox="0 0 65 65" fill="none" xmlns="http://www.w3.org/2000/svg">
<rect opacity="0.6" x="0.364258" y="0.328125" width="64" height="62.0606" rx="12" fill="url(#paint0_linear_15262_89201)"/>
<g clip-path="url(#clip0_15262_89201)">
<path d="M51.4528 10.573H11.8632C11.1624 10.573 10.5942 11.1411 10.5942 11.842V17.8141C10.5942 18.515 11.1624 19.0831 11.8632 19.0831H51.4528C52.1536 19.0831 52.7217 18.515 52.7217 17.8141V11.842C52.7217 11.1411 52.1536 10.573 51.4528 10.573Z" fill="url(#paint1_linear_15262_89201)"/>
<path d="M12.9308 53.9997C11.0978 53.9997 9.70801 52.4487 9.70801 50.3942V12.5268C9.70801 11.0363 11.2388 9.68677 12.9308 9.68677H50.7982C52.4498 9.68677 54.0209 11.0665 54.0209 12.5268V37.5536C54.0209 37.9665 53.6785 38.3089 53.2656 38.3089C52.8527 38.3089 52.5103 37.9665 52.5103 37.5536V20.4327C52.5103 20.06 52.2081 19.7579 51.8355 19.7579H11.8934C11.7122 19.7579 11.541 19.8284 11.4201 19.9593C11.2892 20.0902 11.2187 20.2514 11.2187 20.4327V50.3942C11.2187 51.633 11.9237 52.489 12.9308 52.489H37.5748C37.9877 52.489 38.3301 52.8315 38.3301 53.2444C38.3301 53.6573 37.9877 53.9997 37.5748 53.9997H12.9308ZM12.9308 11.1974C11.9942 11.1974 11.2992 11.9326 11.2287 12.4362V17.5725C11.2287 17.9451 11.5208 18.2472 11.8934 18.2472H51.8456C52.2182 18.2472 52.5203 17.9451 52.5203 17.5725V12.5268C52.5203 12.5268 52.5203 12.4362 52.5203 12.4261C52.4498 11.9326 51.7449 11.2075 50.8183 11.2075H12.9308V11.1974Z" fill="url(#paint2_linear_15262_89201)"/>
<path d="M16.1735 15.7899C15.5894 15.7899 15.106 15.3064 15.106 14.7223C15.106 14.1382 15.5793 13.6548 16.1735 13.6548C16.7677 13.6548 17.241 14.1382 17.241 14.7223C17.241 15.3064 16.7677 15.7899 16.1735 15.7899Z" fill="#F8F8FF"/>
<path d="M21.2497 15.7899C20.6655 15.7899 20.1821 15.3064 20.1821 14.7223C20.1821 14.1382 20.6655 13.6548 21.2497 13.6548C21.8338 13.6548 22.3172 14.1382 22.3172 14.7223C22.3172 15.3064 21.8439 15.7899 21.2497 15.7899Z" fill="#F8F8FF"/>
<path d="M26.3356 15.7899C25.7515 15.7899 25.2681 15.3064 25.2681 14.7223C25.2681 14.1382 25.7515 13.6548 26.3356 13.6548C26.9197 13.6548 27.4031 14.1382 27.4031 14.7223C27.4031 15.3064 26.9298 15.7899 26.3356 15.7899Z" fill="#F8F8FF"/>
<rect x="10.6909" y="18.6631" width="42.3129" height="34.3366" rx="3" fill="white" stroke="url(#paint3_linear_15262_89201)" stroke-width="2"/>
</g>
<g clip-path="url(#clip1_15262_89201)">
<path d="M38.5036 44.0593H32.3043C32.1282 44.0593 31.9854 44.2022 31.9854 44.3782V46.5412C31.9854 46.7173 32.1282 46.8601 32.3043 46.8601H33.039C33.2297 47.9959 34.2149 48.8617 35.4044 48.8617C36.594 48.8617 37.5792 47.9959 37.7699 46.8601H38.5046C38.6807 46.8601 38.8235 46.7173 38.8235 46.5412V44.3782C38.8235 44.2022 38.6807 44.0593 38.5046 44.0593H38.5036Z" fill="#637CF7"/>
<path d="M35.4047 26.007C35.8469 26.007 36.205 25.649 36.205 25.2068V23.2297C36.205 22.7875 35.8469 22.4294 35.4047 22.4294C34.9625 22.4294 34.6045 22.7875 34.6045 23.2297V25.2058C34.6045 25.648 34.9625 26.006 35.4047 26.006V26.007Z" fill="#637CF7"/>
<path d="M30.1461 26.8299C30.2938 27.0862 30.5638 27.23 30.8397 27.23C30.9757 27.23 31.1136 27.1957 31.2388 27.1224C31.6213 26.9013 31.7524 26.4121 31.5323 26.0287L30.5443 24.3176C30.3232 23.9342 29.833 23.8031 29.4505 24.0242C29.068 24.2452 28.9369 24.7344 29.1571 25.1179L30.1451 26.8299H30.1461Z" fill="#637CF7"/>
<path d="M25.3848 29.477L27.0958 30.4651C27.222 30.5385 27.359 30.5727 27.4949 30.5727C27.7718 30.5727 28.0408 30.4289 28.1885 30.1726C28.4096 29.7901 28.2785 29.3 27.895 29.0789L26.184 28.0908C25.8015 27.8697 25.3114 28.0008 25.0903 28.3843C24.8692 28.7668 25.0003 29.2569 25.3838 29.478L25.3848 29.477Z" fill="#637CF7"/>
<path d="M45.4239 39.1973L43.7128 38.2092C43.3294 37.9881 42.8402 38.1192 42.6191 38.5027C42.398 38.8852 42.5291 39.3753 42.9126 39.5964L44.6246 40.5845C44.7508 40.6579 44.8878 40.6921 45.0237 40.6921C45.3006 40.6921 45.5696 40.5483 45.7173 40.292C45.9384 39.9095 45.8073 39.4193 45.4239 39.1983V39.1973Z" fill="#637CF7"/>
<path d="M46.5117 33.5359H44.5356C44.0934 33.5359 43.7354 33.8939 43.7354 34.3361C43.7354 34.7783 44.0934 35.1364 44.5356 35.1364H46.5117C46.9539 35.1364 47.3119 34.7783 47.3119 34.3361C47.3119 33.8939 46.9539 33.5359 46.5117 33.5359Z" fill="#637CF7"/>
<path d="M43.3131 30.5718C43.449 30.5718 43.586 30.5375 43.7122 30.4642L45.4232 29.4761C45.8057 29.255 45.9368 28.7659 45.7167 28.3824C45.4956 27.9999 45.0065 27.8678 44.623 28.0889L42.911 29.0769C42.5285 29.298 42.3974 29.7872 42.6175 30.1707C42.7662 30.427 43.0352 30.5708 43.3111 30.5708L43.3131 30.5718Z" fill="#637CF7"/>
<path d="M39.5698 27.1224C39.696 27.1957 39.833 27.23 39.969 27.23C40.2458 27.23 40.5149 27.0862 40.6626 26.8299L41.6506 25.1179C41.8717 24.7354 41.7406 24.2452 41.3572 24.0242C40.9737 23.8031 40.4845 23.9342 40.2634 24.3176L39.2754 26.0287C39.0543 26.4112 39.1854 26.9013 39.5689 27.1224H39.5698Z" fill="#637CF7"/>
<path d="M35.7207 27.537C33.499 27.4382 31.4026 28.392 29.9987 30.1999C29.5937 30.7213 29.2699 31.3063 29.0449 31.9177C29.6025 31.9804 30.1152 32.2239 30.5202 32.6192L31.4916 33.5906C32.1666 34.2656 32.373 35.2371 32.0766 36.1097C32.8866 36.5147 33.4354 37.3511 33.4354 38.3049V39.6902C33.4354 40.644 32.8954 41.4804 32.0766 41.8766C32.1216 42.0116 32.1578 42.1555 32.1754 42.2993C32.238 42.3267 32.3016 42.3443 32.373 42.3443H38.4364C38.6428 42.3443 38.8228 42.2093 38.8952 42.0116L39.0302 41.6066C39.3628 40.6078 39.9029 39.6364 40.6767 38.6376C41.2891 37.8461 41.7655 36.9549 41.9993 35.9923C43.0705 31.683 39.8402 27.7248 35.7197 27.535L35.7207 27.537Z" fill="#B1BDF7"/>
<path d="M31.0903 37.671L29.8968 37.49C29.7471 37.1369 29.708 37.0351 29.5593 36.6731L30.2823 35.7154C30.4711 35.4562 30.4476 35.0952 30.2196 34.8672L29.2453 33.8939C29.0173 33.6659 28.6564 33.6424 28.3971 33.8312L27.4384 34.5532C27.0774 34.4045 26.9747 34.3644 26.6137 34.2157L26.4405 33.0222C26.4014 32.7082 26.1265 32.4724 25.8047 32.4724H24.4224C24.1005 32.4724 23.8334 32.7082 23.7865 33.0222L23.6133 34.2157C23.2523 34.3644 23.1574 34.4045 22.7965 34.5532L21.8309 33.8312C21.5716 33.6424 21.2185 33.6659 20.9905 33.8939L20.0162 34.8672C19.7882 35.0952 19.7569 35.4562 19.9536 35.7154L20.6687 36.6731C20.519 37.0351 20.4799 37.1369 20.3312 37.49L19.1455 37.671C18.8237 37.7101 18.5879 37.985 18.5879 38.3069V39.6892C18.5879 40.011 18.8237 40.2781 19.1455 40.3251L20.3312 40.4982C20.4809 40.8592 20.52 40.9531 20.6687 41.3151L19.9536 42.2807C19.7569 42.5399 19.7882 42.8931 20.0162 43.121L20.9905 44.0944C21.2185 44.3223 21.5716 44.3536 21.8309 44.157L22.7965 43.4419C23.1574 43.5906 23.2514 43.6307 23.6133 43.7794L23.7865 44.9651C23.8334 45.2869 24.1005 45.5227 24.4224 45.5227H25.8047C26.1265 45.5227 26.4014 45.2869 26.4405 44.9651L26.6137 43.7794C26.9747 43.6307 27.0774 43.5906 27.4384 43.4419L28.3971 44.157C28.6564 44.3527 29.0173 44.3213 29.2453 44.0944L30.2196 43.121C30.4476 42.8931 30.4711 42.5399 30.2823 42.2807L29.5593 41.3151C29.709 40.9541 29.7481 40.8592 29.8968 40.4982L31.0903 40.3251C31.4043 40.2781 31.6401 40.011 31.6401 39.6892V38.3069C31.6401 37.985 31.4043 37.7101 31.0903 37.671ZM25.113 41.5019C23.7297 41.5019 22.6096 40.3808 22.6096 38.9985C22.6096 37.6162 23.7307 36.4951 25.113 36.4951C26.4953 36.4951 27.6164 37.6162 27.6164 38.9985C27.6164 40.3808 26.4953 41.5019 25.113 41.5019Z" fill="#4254AC"/>
</g>
<defs>
<linearGradient id="paint0_linear_15262_89201" x1="-8.13574" y1="-8.884" x2="72.6513" y2="79.4163" gradientUnits="userSpaceOnUse">
<stop stop-color="#F8F9FF"/>
<stop offset="1" stop-color="#DBDEFE"/>
</linearGradient>
<linearGradient id="paint1_linear_15262_89201" x1="10.5942" y1="14.828" x2="58.905" y2="12.8107" gradientUnits="userSpaceOnUse">
<stop stop-color="#7088FF"/>
<stop offset="1" stop-color="#3A4991"/>
</linearGradient>
<linearGradient id="paint2_linear_15262_89201" x1="9.70801" y1="31.8432" x2="60.61" y2="31.4139" gradientUnits="userSpaceOnUse">
<stop stop-color="#7088FF"/>
<stop offset="1" stop-color="#3A4991"/>
</linearGradient>
<linearGradient id="paint3_linear_15262_89201" x1="9.69092" y1="35.8314" x2="60.5911" y2="35.3078" gradientUnits="userSpaceOnUse">
<stop stop-color="#7088FF"/>
<stop offset="1" stop-color="#3A4991"/>
</linearGradient>
<clipPath id="clip0_15262_89201">
<rect width="44.3129" height="44.3129" fill="white" transform="translate(9.70801 9.68677)"/>
</clipPath>
<clipPath id="clip1_15262_89201">
<rect width="28.7253" height="26.4331" fill="white" transform="translate(18.5869 22.4294)"/>
</clipPath>
</defs>
</svg>
