<svg width="84" height="84" viewBox="0 0 84 84" fill="none" xmlns="http://www.w3.org/2000/svg">
<rect opacity="0.6" width="84" height="84" rx="12" fill="url(#paint0_linear_15262_87765)"/>
<g clip-path="url(#clip0_15262_87765)">
<path d="M67.452 14.3062H14.685C13.7509 14.3062 12.9937 15.0634 12.9937 15.9975V23.9575C12.9937 24.8916 13.7509 25.6488 14.685 25.6488H67.452C68.3861 25.6488 69.1433 24.8916 69.1433 23.9575V15.9975C69.1433 15.0634 68.3861 14.3062 67.452 14.3062Z" fill="url(#paint1_linear_15262_87765)"/>
<path d="M16.108 72.1875C13.6649 72.1875 11.8125 70.1203 11.8125 67.382V16.9104C11.8125 14.9237 13.8528 13.125 16.108 13.125H66.5795C68.781 13.125 70.875 14.964 70.875 16.9104V50.2673C70.875 50.8176 70.4186 51.274 69.8683 51.274C69.3179 51.274 68.8615 50.8176 68.8615 50.2673V27.4477C68.8615 26.951 68.4588 26.5483 67.9621 26.5483H14.7254C14.4837 26.5483 14.2555 26.6423 14.0945 26.8168C13.92 26.9913 13.826 27.206 13.826 27.4477V67.382C13.826 69.033 14.7656 70.174 16.108 70.174H48.9548C49.5051 70.174 49.9615 70.6304 49.9615 71.1808C49.9615 71.7311 49.5051 72.1875 48.9548 72.1875H16.108ZM16.108 15.1385C14.8596 15.1385 13.9334 16.1184 13.8394 16.7896V23.6354C13.8394 24.1321 14.2287 24.5348 14.7254 24.5348H67.9756C68.4722 24.5348 68.8749 24.1321 68.8749 23.6354V16.9104C68.8749 16.9104 68.8749 16.7896 68.8749 16.7761C68.781 16.1184 67.8413 15.1519 66.6064 15.1519H16.108V15.1385Z" fill="url(#paint2_linear_15262_87765)"/>
<path d="M20.4302 21.2596C19.6516 21.2596 19.0073 20.6152 19.0073 19.8367C19.0073 19.0581 19.6382 18.4138 20.4302 18.4138C21.2222 18.4138 21.8531 19.0581 21.8531 19.8367C21.8531 20.6152 21.2222 21.2596 20.4302 21.2596Z" fill="#F8F8FF"/>
<path d="M27.1958 21.2596C26.4173 21.2596 25.7729 20.6152 25.7729 19.8367C25.7729 19.0581 26.4173 18.4138 27.1958 18.4138C27.9744 18.4138 28.6187 19.0581 28.6187 19.8367C28.6187 20.6152 27.9878 21.2596 27.1958 21.2596Z" fill="#F8F8FF"/>
<path d="M33.9741 21.2596C33.1956 21.2596 32.5513 20.6152 32.5513 19.8367C32.5513 19.0581 33.1956 18.4138 33.9741 18.4138C34.7527 18.4138 35.397 19.0581 35.397 19.8367C35.397 20.6152 34.7661 21.2596 33.9741 21.2596Z" fill="#F8F8FF"/>
<rect x="12.7896" y="24.7563" width="57.0625" height="46.4313" rx="3" fill="white" stroke="url(#paint3_linear_15262_87765)" stroke-width="2"/>
<g clip-path="url(#clip1_15262_87765)">
<path fill-rule="evenodd" clip-rule="evenodd" d="M21.8071 48.7153V62.6534C21.8071 63.6523 22.6228 64.4653 23.6191 64.4653H58.9764C59.9753 64.4653 60.7884 63.6489 60.7884 62.6534V48.7153H21.8071ZM34.1226 57.17V56.0124C34.1226 55.5159 34.5258 55.1126 35.0223 55.1126H47.5728C48.0666 55.1126 48.4725 55.5185 48.4725 56.0124V57.17C48.4725 57.6652 48.0679 58.0698 47.5728 58.0698H35.0223C34.5284 58.0698 34.1226 57.6613 34.1226 57.17Z" fill="#637CF7"/>
<path fill-rule="evenodd" clip-rule="evenodd" d="M54.5347 43.5327V47.8476H59.9779L54.5347 43.5327Z" fill="#637CF7"/>
<path fill-rule="evenodd" clip-rule="evenodd" d="M28.0619 47.8476V43.5327L22.6187 47.8476H28.0619Z" fill="#637CF7"/>
<path fill-rule="evenodd" clip-rule="evenodd" d="M28.9302 39.2316V47.8476H53.6667V39.2316C53.6667 38.8512 53.3562 38.5432 52.977 38.5432H29.6186C29.2433 38.5432 28.9302 38.8499 28.9302 39.2316ZM34.0064 42.0658C33.434 42.0658 33.434 41.1975 34.0064 41.1975H48.5901C49.1612 41.1975 49.1612 42.0658 48.5901 42.0658H34.0064ZM34.0064 45.1933C33.434 45.1933 33.434 44.325 34.0064 44.325H48.5901C49.1612 44.325 49.1612 45.1933 48.5901 45.1933H34.0064Z" fill="#B1BDF7"/>
<path fill-rule="evenodd" clip-rule="evenodd" d="M31.2031 37.675H52.0712L51.9793 35.5098C51.7067 35.0392 51.1382 35.1639 50.4865 35.1639H31.8915C31.5176 35.1639 31.2031 35.4718 31.2031 35.8536V37.6754V37.675Z" fill="#637CF7"/>
<path fill-rule="evenodd" clip-rule="evenodd" d="M33.0518 34.2956H50.0526V32.4728C50.0526 32.0976 49.7433 31.7844 49.3629 31.7844H33.7414C33.3662 31.7844 33.0518 32.0911 33.0518 32.4728V34.2956Z" fill="#4254AC"/>
</g>
</g>
<defs>
<linearGradient id="paint0_linear_15262_87765" x1="-11.1563" y1="-12.4687" x2="98.4375" y2="103.688" gradientUnits="userSpaceOnUse">
<stop stop-color="#F8F9FF"/>
<stop offset="1" stop-color="#DBDEFE"/>
</linearGradient>
<linearGradient id="paint1_linear_15262_87765" x1="12.9937" y1="19.9775" x2="77.3847" y2="17.2887" gradientUnits="userSpaceOnUse">
<stop stop-color="#7088FF"/>
<stop offset="1" stop-color="#3A4991"/>
</linearGradient>
<linearGradient id="paint2_linear_15262_87765" x1="11.8125" y1="42.6562" x2="79.6572" y2="42.084" gradientUnits="userSpaceOnUse">
<stop stop-color="#7088FF"/>
<stop offset="1" stop-color="#3A4991"/>
</linearGradient>
<linearGradient id="paint3_linear_15262_87765" x1="11.7896" y1="47.972" x2="79.6319" y2="47.2741" gradientUnits="userSpaceOnUse">
<stop stop-color="#7088FF"/>
<stop offset="1" stop-color="#3A4991"/>
</linearGradient>
<clipPath id="clip0_15262_87765">
<rect width="59.0625" height="59.0625" fill="white" transform="translate(11.8125 13.125)"/>
</clipPath>
<clipPath id="clip1_15262_87765">
<rect width="38.9813" height="32.681" fill="white" transform="translate(21.8071 31.7844)"/>
</clipPath>
</defs>
</svg>
